<svg width="219" height="128" viewBox="0 0 219 128" fill="none" xmlns="http://www.w3.org/2000/svg">
<path d="M85.4354 64.8186H81.8066L75.7374 55.6299V64.8186H72.1087V49.9215H75.7374L81.8066 59.1526V49.9215H85.4354V64.8186ZM89.8908 51.7465C89.2542 51.7465 88.7307 51.5626 88.3205 51.1948C87.9243 50.8128 87.7263 50.3459 87.7263 49.7942C87.7263 49.2283 87.9243 48.7614 88.3205 48.3936C88.7307 48.0116 89.2542 47.8206 89.8908 47.8206C90.5133 47.8206 91.0226 48.0116 91.4187 48.3936C91.829 48.7614 92.0341 49.2283 92.0341 49.7942C92.0341 50.3459 91.829 50.8128 91.4187 51.1948C91.0226 51.5626 90.5133 51.7465 89.8908 51.7465ZM91.6946 52.9773V64.8186H88.0658V52.9773H91.6946ZM93.6028 58.898C93.6028 57.6672 93.8504 56.592 94.3455 55.6724C94.8548 54.7528 95.5551 54.0454 96.4464 53.5503C97.3518 53.0551 98.3846 52.8076 99.5447 52.8076C101.03 52.8076 102.268 53.1966 103.258 53.9747C104.263 54.7528 104.921 55.8492 105.232 57.264H101.37C101.044 56.3585 100.415 55.9058 99.481 55.9058C98.8161 55.9058 98.2856 56.1675 97.8894 56.691C97.4933 57.2003 97.2953 57.9359 97.2953 58.898C97.2953 59.86 97.4933 60.6027 97.8894 61.1262C98.2856 61.6355 98.8161 61.8901 99.481 61.8901C100.415 61.8901 101.044 61.4374 101.37 60.532H105.232C104.921 61.9184 104.263 63.0078 103.258 63.8C102.254 64.5922 101.016 64.9884 99.5447 64.9884C98.3846 64.9884 97.3518 64.7408 96.4464 64.2456C95.5551 63.7505 94.8548 63.0431 94.3455 62.1235C93.8504 61.204 93.6028 60.1288 93.6028 58.898ZM114.409 64.8186L110.802 59.8529V64.8186H107.173V49.1151H110.802V57.7945L114.388 52.9773H118.866L113.942 58.9192L118.908 64.8186H114.409ZM135.505 49.9215V52.8288H131.557V64.8186H127.929V52.8288H123.982V49.9215H135.505ZM148.488 58.707C148.488 59.0465 148.467 59.4002 148.424 59.768H140.212C140.268 60.5037 140.502 61.0696 140.912 61.4657C141.336 61.8477 141.853 62.0387 142.461 62.0387C143.367 62.0387 143.996 61.6567 144.35 60.8927H148.212C148.014 61.6708 147.653 62.3711 147.13 62.9936C146.62 63.6161 145.977 64.1042 145.199 64.4578C144.421 64.8115 143.551 64.9884 142.589 64.9884C141.428 64.9884 140.396 64.7408 139.49 64.2456C138.585 63.7505 137.877 63.0431 137.368 62.1235C136.859 61.204 136.604 60.1288 136.604 58.898C136.604 57.6672 136.852 56.592 137.347 55.6724C137.856 54.7528 138.564 54.0454 139.469 53.5503C140.374 53.0551 141.414 52.8076 142.589 52.8076C143.734 52.8076 144.753 53.0481 145.644 53.5291C146.536 54.0101 147.229 54.6962 147.724 55.5875C148.233 56.4788 148.488 57.5186 148.488 58.707ZM144.774 57.752C144.774 57.1296 144.562 56.6344 144.138 56.2666C143.713 55.8987 143.183 55.7148 142.546 55.7148C141.938 55.7148 141.421 55.8917 140.997 56.2453C140.587 56.599 140.332 57.1013 140.233 57.752H144.774ZM164.173 62.1872H158.613L157.722 64.8186H153.923L159.313 49.9215H163.515L168.905 64.8186H165.064L164.173 62.1872ZM163.239 59.386L161.393 53.9323L159.568 59.386H163.239ZM172.349 51.7465C171.713 51.7465 171.189 51.5626 170.779 51.1948C170.383 50.8128 170.185 50.3459 170.185 49.7942C170.185 49.2283 170.383 48.7614 170.779 48.3936C171.189 48.0116 171.713 47.8206 172.349 47.8206C172.972 47.8206 173.481 48.0116 173.877 48.3936C174.288 48.7614 174.493 49.2283 174.493 49.7942C174.493 50.3459 174.288 50.8128 173.877 51.1948C173.481 51.5626 172.972 51.7465 172.349 51.7465ZM174.174 66.3465C174.174 67.8037 173.807 68.8506 173.071 69.4872C172.335 70.138 171.31 70.4634 169.994 70.4634H168.572V67.3863H169.442C169.838 67.3863 170.121 67.3085 170.291 67.1529C170.461 66.9973 170.546 66.7426 170.546 66.389V52.9773H174.174V66.3465ZM188.476 52.9773V64.8186H184.847V63.2058C184.48 63.7293 183.977 64.1537 183.341 64.4791C182.718 64.7903 182.025 64.9459 181.261 64.9459C180.356 64.9459 179.556 64.7479 178.863 64.3517C178.17 63.9415 177.632 63.3544 177.25 62.5904C176.868 61.8265 176.677 60.9281 176.677 59.8953V52.9773H180.285V59.4073C180.285 60.1995 180.49 60.8149 180.9 61.2535C181.311 61.6921 181.862 61.9113 182.555 61.9113C183.263 61.9113 183.822 61.6921 184.232 61.2535C184.642 60.8149 184.847 60.1995 184.847 59.4073V52.9773H188.476ZM190.361 58.8767C190.361 57.6601 190.587 56.592 191.04 55.6724C191.507 54.7528 192.137 54.0454 192.929 53.5503C193.721 53.0551 194.605 52.8076 195.581 52.8076C196.36 52.8076 197.067 52.9703 197.704 53.2956C198.354 53.621 198.864 54.0596 199.231 54.6113V49.1151H202.86V64.8186H199.231V63.1209C198.892 63.6868 198.404 64.1395 197.767 64.4791C197.145 64.8186 196.416 64.9884 195.581 64.9884C194.605 64.9884 193.721 64.7408 192.929 64.2456C192.137 63.7363 191.507 63.0219 191.04 62.1023C190.587 61.1686 190.361 60.0934 190.361 58.8767ZM199.231 58.898C199.231 57.9925 198.977 57.2781 198.468 56.7547C197.972 56.2312 197.364 55.9695 196.643 55.9695C195.921 55.9695 195.306 56.2312 194.796 56.7547C194.301 57.264 194.054 57.9713 194.054 58.8767C194.054 59.7822 194.301 60.5037 194.796 61.0413C195.306 61.5647 195.921 61.8265 196.643 61.8265C197.364 61.8265 197.972 61.5647 198.468 61.0413C198.977 60.5178 199.231 59.8034 199.231 58.898ZM204.764 58.8767C204.764 57.6601 204.99 56.592 205.443 55.6724C205.91 54.7528 206.539 54.0454 207.332 53.5503C208.124 53.0551 209.008 52.8076 209.984 52.8076C210.819 52.8076 211.548 52.9773 212.17 53.3169C212.807 53.6564 213.295 54.102 213.634 54.6538V52.9773H217.263V64.8186H213.634V63.1422C213.281 63.6939 212.786 64.1395 212.149 64.4791C211.526 64.8186 210.798 64.9884 209.963 64.9884C209.001 64.9884 208.124 64.7408 207.332 64.2456C206.539 63.7363 205.91 63.0219 205.443 62.1023C204.99 61.1686 204.764 60.0934 204.764 58.8767ZM213.634 58.898C213.634 57.9925 213.38 57.2781 212.87 56.7547C212.375 56.2312 211.767 55.9695 211.045 55.9695C210.324 55.9695 209.708 56.2312 209.199 56.7547C208.704 57.264 208.456 57.9713 208.456 58.8767C208.456 59.7822 208.704 60.5037 209.199 61.0413C209.708 61.5647 210.324 61.8265 211.045 61.8265C211.767 61.8265 212.375 61.5647 212.87 61.0413C213.38 60.5178 213.634 59.8034 213.634 58.898Z" fill="white"/>
<path d="M79.0131 73.7137V80.793H77.8519V75.9445L75.6925 80.793H74.8878L72.7181 75.9445V80.793H71.5569V73.7137H72.8098L75.2952 79.2651L77.7704 73.7137H79.0131ZM80.1523 77.9613C80.1523 77.3977 80.2677 76.8986 80.4986 76.464C80.7363 76.0294 81.0554 75.6932 81.4561 75.4555C81.8635 75.2111 82.3117 75.0888 82.8006 75.0888C83.242 75.0888 83.6257 75.1771 83.9517 75.3537C84.2844 75.5234 84.5493 75.7374 84.7462 75.9954V75.1805H85.9176V80.793H84.7462V79.9578C84.5493 80.2226 84.281 80.4433 83.9415 80.6199C83.6019 80.7964 83.2149 80.8847 82.7803 80.8847C82.2981 80.8847 81.8567 80.7625 81.4561 80.518C81.0554 80.2668 80.7363 79.9204 80.4986 79.479C80.2677 79.0308 80.1523 78.5249 80.1523 77.9613ZM84.7462 77.9817C84.7462 77.5946 84.6647 77.2585 84.5017 76.9733C84.3455 76.6881 84.1384 76.4708 83.8804 76.3214C83.6223 76.172 83.3439 76.0973 83.0451 76.0973C82.7463 76.0973 82.4679 76.172 82.2099 76.3214C81.9518 76.464 81.7413 76.6779 81.5783 76.9631C81.4221 77.2415 81.344 77.5742 81.344 77.9613C81.344 78.3484 81.4221 78.6879 81.5783 78.9799C81.7413 79.2719 81.9518 79.496 82.2099 79.6522C82.4747 79.8016 82.7531 79.8763 83.0451 79.8763C83.3439 79.8763 83.6223 79.8016 83.8804 79.6522C84.1384 79.5028 84.3455 79.2855 84.5017 79.0003C84.6647 78.7083 84.7462 78.3688 84.7462 77.9817ZM84.2776 73.673L82.0265 74.7833V73.9276L84.2776 72.6849V73.673ZM87.0557 77.9613C87.0557 77.3977 87.1712 76.8986 87.402 76.464C87.6397 76.0294 87.9589 75.6932 88.3595 75.4555C88.767 75.2111 89.2185 75.0888 89.7143 75.0888C90.1489 75.0888 90.5325 75.1771 90.8653 75.3537C91.2048 75.5302 91.4663 75.7441 91.6496 75.9954V75.1805H92.821V83.4618H91.6496V79.9781C91.4663 80.2294 91.2014 80.4433 90.8551 80.6199C90.5088 80.7964 90.1149 80.8847 89.6735 80.8847C89.1914 80.8847 88.75 80.7625 88.3493 80.518C87.9555 80.2668 87.6397 79.9204 87.402 79.479C87.1712 79.0308 87.0557 78.5249 87.0557 77.9613ZM91.6496 77.9817C91.6496 77.5946 91.5681 77.2585 91.4052 76.9733C91.249 76.6881 91.0418 76.4708 90.7838 76.3214C90.5258 76.172 90.2473 76.0973 89.9485 76.0973C89.6498 76.0973 89.3713 76.172 89.1133 76.3214C88.8552 76.464 88.6447 76.6779 88.4818 76.9631C88.3256 77.2415 88.2475 77.5742 88.2475 77.9613C88.2475 78.3484 88.3256 78.6879 88.4818 78.9799C88.6447 79.2719 88.8552 79.496 89.1133 79.6522C89.3781 79.8016 89.6565 79.8763 89.9485 79.8763C90.2473 79.8763 90.5258 79.8016 90.7838 79.6522C91.0418 79.5028 91.249 79.2855 91.4052 79.0003C91.5681 78.7083 91.6496 78.3688 91.6496 77.9817ZM99.429 75.1805V80.793H98.2678V80.1309C98.0845 80.3618 97.8434 80.5452 97.5446 80.681C97.2526 80.81 96.9403 80.8745 96.6075 80.8745C96.1661 80.8745 95.7689 80.7828 95.4157 80.5995C95.0694 80.4161 94.7944 80.1445 94.5907 79.7846C94.3937 79.4247 94.2953 78.9901 94.2953 78.4808V75.1805H95.4463V78.3076C95.4463 78.8101 95.5719 79.1972 95.8232 79.4688C96.0744 79.7337 96.4174 79.8661 96.852 79.8661C97.2866 79.8661 97.6295 79.7337 97.8808 79.4688C98.1388 79.1972 98.2678 78.8101 98.2678 78.3076V75.1805H99.429ZM101.552 74.4369C101.341 74.4369 101.165 74.3656 101.022 74.223C100.88 74.0804 100.808 73.9039 100.808 73.6934C100.808 73.4828 100.88 73.3063 101.022 73.1637C101.165 73.0211 101.341 72.9498 101.552 72.9498C101.756 72.9498 101.929 73.0211 102.071 73.1637C102.214 73.3063 102.285 73.4828 102.285 73.6934C102.285 73.9039 102.214 74.0804 102.071 74.223C101.929 74.3656 101.756 74.4369 101.552 74.4369ZM102.122 75.1805V80.793H100.961V75.1805H102.122ZM106.479 75.0888C106.92 75.0888 107.314 75.1805 107.66 75.3639C108.013 75.5472 108.288 75.8188 108.485 76.1788C108.682 76.5387 108.781 76.9733 108.781 77.4826V80.793H107.63V77.6557C107.63 77.1532 107.504 76.7695 107.253 76.5047C107.002 76.2331 106.659 76.0973 106.224 76.0973C105.789 76.0973 105.443 76.2331 105.185 76.5047C104.934 76.7695 104.808 77.1532 104.808 77.6557V80.793H103.647V75.1805H104.808V75.8222C104.998 75.5914 105.239 75.4114 105.531 75.2824C105.83 75.1534 106.146 75.0888 106.479 75.0888ZM109.875 77.9613C109.875 77.3977 109.99 76.8986 110.221 76.464C110.459 76.0294 110.778 75.6932 111.179 75.4555C111.586 75.2111 112.034 75.0888 112.523 75.0888C112.965 75.0888 113.348 75.1771 113.674 75.3537C114.007 75.5234 114.272 75.7374 114.469 75.9954V75.1805H115.64V80.793H114.469V79.9578C114.272 80.2226 114.004 80.4433 113.664 80.6199C113.325 80.7964 112.937 80.8847 112.503 80.8847C112.021 80.8847 111.579 80.7625 111.179 80.518C110.778 80.2668 110.459 79.9204 110.221 79.479C109.99 79.0308 109.875 78.5249 109.875 77.9613ZM114.469 77.9817C114.469 77.5946 114.387 77.2585 114.224 76.9733C114.068 76.6881 113.861 76.4708 113.603 76.3214C113.345 76.172 113.066 76.0973 112.768 76.0973C112.469 76.0973 112.19 76.172 111.932 76.3214C111.674 76.464 111.464 76.6779 111.301 76.9631C111.145 77.2415 111.067 77.5742 111.067 77.9613C111.067 78.3484 111.145 78.6879 111.301 78.9799C111.464 79.2719 111.674 79.496 111.932 79.6522C112.197 79.8016 112.476 79.8763 112.768 79.8763C113.066 79.8763 113.345 79.8016 113.603 79.6522C113.861 79.5028 114.068 79.2855 114.224 79.0003C114.387 78.7083 114.469 78.3688 114.469 77.9817ZM119.203 80.8847C118.761 80.8847 118.364 80.8066 118.011 80.6504C117.664 80.4874 117.389 80.2701 117.186 79.9985C116.982 79.7201 116.873 79.4111 116.86 79.0716H118.062C118.082 79.3093 118.194 79.5096 118.398 79.6726C118.608 79.8288 118.87 79.9068 119.182 79.9068C119.508 79.9068 119.759 79.8457 119.936 79.7235C120.119 79.5945 120.211 79.4315 120.211 79.2346C120.211 79.0241 120.109 78.8679 119.905 78.766C119.708 78.6641 119.393 78.5521 118.958 78.4299C118.537 78.3144 118.194 78.2024 117.929 78.0937C117.664 77.9851 117.434 77.8187 117.237 77.5946C117.047 77.3705 116.951 77.0751 116.951 76.7084C116.951 76.4096 117.04 76.138 117.216 75.8935C117.393 75.6423 117.644 75.4454 117.97 75.3028C118.303 75.1601 118.683 75.0888 119.111 75.0888C119.749 75.0888 120.262 75.2518 120.649 75.5778C121.043 75.8969 121.253 76.3349 121.281 76.8918H120.119C120.099 76.6405 119.997 76.4402 119.814 76.2908C119.63 76.1414 119.383 76.0667 119.07 76.0667C118.765 76.0667 118.53 76.1244 118.367 76.2399C118.204 76.3553 118.123 76.5081 118.123 76.6982C118.123 76.8476 118.177 76.9733 118.286 77.0751C118.394 77.177 118.527 77.2585 118.683 77.3196C118.839 77.3739 119.07 77.4452 119.376 77.5335C119.783 77.6421 120.116 77.7542 120.374 77.8696C120.639 77.9783 120.866 78.1413 121.056 78.3586C121.247 78.5759 121.345 78.8645 121.352 79.2244C121.352 79.5435 121.264 79.8288 121.087 80.08C120.91 80.3313 120.659 80.5282 120.333 80.6708C120.014 80.8134 119.637 80.8847 119.203 80.8847ZM132.709 73.7137V80.793H131.547V75.9445L129.388 80.793H128.583L126.414 75.9445V80.793H125.253V73.7137H126.505L128.991 79.2651L131.466 73.7137H132.709ZM136.669 80.8847C136.14 80.8847 135.661 80.7659 135.233 80.5282C134.805 80.2837 134.469 79.9442 134.225 79.5096C133.98 79.0682 133.858 78.5589 133.858 77.9817C133.858 77.4113 133.984 76.9054 134.235 76.464C134.486 76.0226 134.829 75.683 135.264 75.4454C135.698 75.2077 136.184 75.0888 136.72 75.0888C137.257 75.0888 137.742 75.2077 138.177 75.4454C138.612 75.683 138.954 76.0226 139.206 76.464C139.457 76.9054 139.583 77.4113 139.583 77.9817C139.583 78.5521 139.454 79.058 139.196 79.4994C138.937 79.9408 138.584 80.2837 138.136 80.5282C137.695 80.7659 137.206 80.8847 136.669 80.8847ZM136.669 79.8763C136.968 79.8763 137.247 79.805 137.505 79.6624C137.769 79.5198 137.983 79.3059 138.146 79.0207C138.309 78.7354 138.391 78.3891 138.391 77.9817C138.391 77.5742 138.313 77.2313 138.157 76.9529C138 76.6677 137.793 76.4538 137.535 76.3112C137.277 76.1686 136.999 76.0973 136.7 76.0973C136.401 76.0973 136.123 76.1686 135.865 76.3112C135.613 76.4538 135.413 76.6677 135.264 76.9529C135.114 77.2313 135.04 77.5742 135.04 77.9817C135.04 78.5861 135.192 79.0546 135.498 79.3874C135.81 79.7133 136.201 79.8763 136.669 79.8763ZM142.9 79.7541L144.489 75.1805H145.722L143.583 80.793H142.197L140.068 75.1805H141.311L142.9 79.7541ZM151.743 77.8493C151.743 78.0598 151.73 78.2499 151.703 78.4197H147.414C147.448 78.8679 147.615 79.2278 147.913 79.4994C148.212 79.771 148.579 79.9068 149.014 79.9068C149.638 79.9068 150.08 79.6454 150.338 79.1225H151.591C151.421 79.6386 151.112 80.063 150.664 80.3958C150.222 80.7217 149.672 80.8847 149.014 80.8847C148.477 80.8847 147.995 80.7659 147.567 80.5282C147.146 80.2837 146.813 79.9442 146.569 79.5096C146.331 79.0682 146.212 78.5589 146.212 77.9817C146.212 77.4045 146.328 76.8986 146.559 76.464C146.796 76.0226 147.126 75.683 147.547 75.4454C147.975 75.2077 148.463 75.0888 149.014 75.0888C149.543 75.0888 150.015 75.2043 150.429 75.4352C150.844 75.6661 151.166 75.992 151.397 76.413C151.628 76.8273 151.743 77.306 151.743 77.8493ZM150.531 77.4826C150.524 77.0548 150.372 76.7118 150.073 76.4538C149.774 76.1957 149.404 76.0667 148.963 76.0667C148.562 76.0667 148.219 76.1957 147.934 76.4538C147.649 76.705 147.479 77.048 147.425 77.4826H150.531ZM154.047 73.2554V80.793H152.886V73.2554H154.047ZM160.716 77.8493C160.716 78.0598 160.702 78.2499 160.675 78.4197H156.387C156.421 78.8679 156.587 79.2278 156.886 79.4994C157.185 79.771 157.551 79.9068 157.986 79.9068C158.611 79.9068 159.052 79.6454 159.31 79.1225H160.563C160.393 79.6386 160.084 80.063 159.636 80.3958C159.195 80.7217 158.645 80.8847 157.986 80.8847C157.45 80.8847 156.967 80.7659 156.54 80.5282C156.119 80.2837 155.786 79.9442 155.541 79.5096C155.304 79.0682 155.185 78.5589 155.185 77.9817C155.185 77.4045 155.3 76.8986 155.531 76.464C155.769 76.0226 156.098 75.683 156.519 75.4454C156.947 75.2077 157.436 75.0888 157.986 75.0888C158.516 75.0888 158.988 75.2043 159.402 75.4352C159.816 75.6661 160.139 75.992 160.37 76.413C160.6 76.8273 160.716 77.306 160.716 77.8493ZM159.504 77.4826C159.497 77.0548 159.344 76.7118 159.045 76.4538C158.747 76.1957 158.376 76.0667 157.935 76.0667C157.534 76.0667 157.191 76.1957 156.906 76.4538C156.621 76.705 156.451 77.048 156.397 77.4826H159.504ZM162.449 74.4369C162.239 74.4369 162.062 74.3656 161.92 74.223C161.777 74.0804 161.706 73.9039 161.706 73.6934C161.706 73.4828 161.777 73.3063 161.92 73.1637C162.062 73.0211 162.239 72.9498 162.449 72.9498C162.653 72.9498 162.826 73.0211 162.969 73.1637C163.111 73.3063 163.183 73.4828 163.183 73.6934C163.183 73.9039 163.111 74.0804 162.969 74.223C162.826 74.3656 162.653 74.4369 162.449 74.4369ZM163.02 75.1805V80.793H161.859V75.1805H163.02ZM165.706 75.9954C165.875 75.7102 166.099 75.4895 166.378 75.3333C166.663 75.1703 166.999 75.0888 167.386 75.0888V76.2908H167.091C166.636 76.2908 166.29 76.4062 166.052 76.6371C165.821 76.868 165.706 77.2687 165.706 77.8391V80.793H164.544V75.1805H165.706V75.9954ZM168.067 77.9613C168.067 77.3977 168.182 76.8986 168.413 76.464C168.651 76.0294 168.97 75.6932 169.37 75.4555C169.778 75.2111 170.226 75.0888 170.715 75.0888C171.156 75.0888 171.54 75.1771 171.866 75.3537C172.199 75.5234 172.464 75.7374 172.661 75.9954V75.1805H173.832V80.793H172.661V79.9578C172.464 80.2226 172.195 80.4433 171.856 80.6199C171.516 80.7964 171.129 80.8847 170.695 80.8847C170.212 80.8847 169.771 80.7625 169.37 80.518C168.97 80.2668 168.651 79.9204 168.413 79.479C168.182 79.0308 168.067 78.5249 168.067 77.9613ZM172.661 77.9817C172.661 77.5946 172.579 77.2585 172.416 76.9733C172.26 76.6881 172.053 76.4708 171.795 76.3214C171.537 76.172 171.258 76.0973 170.959 76.0973C170.661 76.0973 170.382 76.172 170.124 76.3214C169.866 76.464 169.656 76.6779 169.493 76.9631C169.336 77.2415 169.258 77.5742 169.258 77.9613C169.258 78.3484 169.336 78.6879 169.493 78.9799C169.656 79.2719 169.866 79.496 170.124 79.6522C170.389 79.8016 170.667 79.8763 170.959 79.8763C171.258 79.8763 171.537 79.8016 171.795 79.6522C172.053 79.5028 172.26 79.2855 172.416 79.0003C172.579 78.7083 172.661 78.3688 172.661 77.9817ZM177.394 80.8847C176.953 80.8847 176.556 80.8066 176.203 80.6504C175.856 80.4874 175.581 80.2701 175.377 79.9985C175.174 79.7201 175.065 79.4111 175.052 79.0716H176.253C176.274 79.3093 176.386 79.5096 176.59 79.6726C176.8 79.8288 177.062 79.9068 177.374 79.9068C177.7 79.9068 177.951 79.8457 178.128 79.7235C178.311 79.5945 178.403 79.4315 178.403 79.2346C178.403 79.0241 178.301 78.8679 178.097 78.766C177.9 78.6641 177.584 78.5521 177.15 78.4299C176.729 78.3144 176.386 78.2024 176.121 78.0937C175.856 77.9851 175.625 77.8187 175.428 77.5946C175.238 77.3705 175.143 77.0751 175.143 76.7084C175.143 76.4096 175.231 76.138 175.408 75.8935C175.585 75.6423 175.836 75.4454 176.162 75.3028C176.495 75.1601 176.875 75.0888 177.303 75.0888C177.941 75.0888 178.454 75.2518 178.841 75.5778C179.235 75.8969 179.445 76.3349 179.472 76.8918H178.311C178.291 76.6405 178.189 76.4402 178.005 76.2908C177.822 76.1414 177.574 76.0667 177.262 76.0667C176.956 76.0667 176.722 76.1244 176.559 76.2399C176.396 76.3553 176.315 76.5081 176.315 76.6982C176.315 76.8476 176.369 76.9733 176.478 77.0751C176.586 77.177 176.719 77.2585 176.875 77.3196C177.031 77.3739 177.262 77.4452 177.567 77.5335C177.975 77.6421 178.308 77.7542 178.566 77.8696C178.831 77.9783 179.058 78.1413 179.248 78.3586C179.438 78.5759 179.537 78.8645 179.544 79.2244C179.544 79.5435 179.455 79.8288 179.279 80.08C179.102 80.3313 178.851 80.5282 178.525 80.6708C178.206 80.8134 177.829 80.8847 177.394 80.8847Z" fill="white"/>
<path d="M6.6406 97V28.6409H19.1406L51.2694 76.7852V28.6409H63.7693V97H51.2694L19.1406 48.9533V97H6.6406Z" fill="white"/>
<path d="M45.0732 91.1583V96.5128H26.4837V64.1388L45.0732 91.1583Z" stroke="white" stroke-width="1.0186"/>
<path d="M26.4837 36.3439V29.6509H45.0732V63.8374L26.4837 36.3439Z" stroke="white" stroke-width="1.0186"/>
</svg>
