<svg width="303" height="70" viewBox="0 0 303 70" fill="none" xmlns="http://www.w3.org/2000/svg">
<path d="M103.723 37.4468H98.3184L89.2792 23.7615V37.4468H83.8746V15.2596H89.2792L98.3184 29.0081V15.2596H103.723V37.4468ZM110.359 17.9777C109.41 17.9777 108.631 17.7038 108.02 17.156C107.43 16.5871 107.135 15.8917 107.135 15.07C107.135 14.2272 107.43 13.5318 108.02 12.984C108.631 12.4151 109.41 12.1307 110.359 12.1307C111.286 12.1307 112.044 12.4151 112.634 12.984C113.245 13.5318 113.551 14.2272 113.551 15.07C113.551 15.8917 113.245 16.5871 112.634 17.156C112.044 17.7038 111.286 17.9777 110.359 17.9777ZM113.045 19.8108V37.4468H107.641V19.8108H113.045ZM115.887 28.6288C115.887 26.7957 116.256 25.1943 116.993 23.8247C117.752 22.4552 118.795 21.4016 120.122 20.6642C121.471 19.9267 123.009 19.558 124.737 19.558C126.949 19.558 128.793 20.1374 130.268 21.2963C131.764 22.4552 132.743 24.0881 133.207 26.1952H127.455C126.97 24.8467 126.033 24.1724 124.642 24.1724C123.652 24.1724 122.861 24.5622 122.271 25.3418C121.682 26.1004 121.387 27.196 121.387 28.6288C121.387 30.0616 121.682 31.1678 122.271 31.9474C122.861 32.7059 123.652 33.0852 124.642 33.0852C126.033 33.0852 126.97 32.4109 127.455 31.0624H133.207C132.743 33.1273 131.764 34.7498 130.268 35.9297C128.772 37.1097 126.928 37.6996 124.737 37.6996C123.009 37.6996 121.471 37.3309 120.122 36.5934C118.795 35.856 117.752 34.8024 116.993 33.4329C116.256 32.0633 115.887 30.4619 115.887 28.6288ZM146.875 37.4468L141.503 30.0511V37.4468H136.098V14.0586H141.503V26.9853L146.844 19.8108H153.513L146.18 28.6604L153.576 37.4468H146.875ZM178.294 15.2596V19.5896H172.415V37.4468H167.011V19.5896H161.132V15.2596H178.294ZM197.631 28.3444C197.631 28.85 197.599 29.3768 197.536 29.9246H185.305C185.389 31.0203 185.737 31.8631 186.348 32.4531C186.98 33.022 187.749 33.3064 188.655 33.3064C190.003 33.3064 190.941 32.7375 191.468 31.5997H197.22C196.925 32.7586 196.388 33.8016 195.608 34.7287C194.85 35.6558 193.891 36.3827 192.732 36.9095C191.573 37.4362 190.277 37.6996 188.845 37.6996C187.117 37.6996 185.579 37.3309 184.23 36.5934C182.882 35.856 181.828 34.8024 181.07 33.4329C180.311 32.0633 179.932 30.4619 179.932 28.6288C179.932 26.7957 180.301 25.1943 181.038 23.8247C181.797 22.4552 182.85 21.4016 184.199 20.6642C185.547 19.9267 187.096 19.558 188.845 19.558C190.551 19.558 192.068 19.9162 193.396 20.6326C194.723 21.349 195.756 22.3709 196.493 23.6983C197.252 25.0258 197.631 26.5744 197.631 28.3444ZM192.1 26.9221C192.1 25.995 191.784 25.2575 191.152 24.7097C190.52 24.1619 189.73 23.888 188.781 23.888C187.875 23.888 187.106 24.1513 186.474 24.6781C185.863 25.2049 185.484 25.9529 185.336 26.9221H192.1ZM220.991 33.5277H212.711L211.383 37.4468H205.726L213.754 15.2596H220.012L228.04 37.4468H222.319L220.991 33.5277ZM219.601 29.3557L216.851 21.2331L214.133 29.3557H219.601ZM233.169 17.9777C232.221 17.9777 231.441 17.7038 230.83 17.156C230.24 16.5871 229.945 15.8917 229.945 15.07C229.945 14.2272 230.24 13.5318 230.83 12.984C231.441 12.4151 232.221 12.1307 233.169 12.1307C234.096 12.1307 234.855 12.4151 235.445 12.984C236.056 13.5318 236.361 14.2272 236.361 15.07C236.361 15.8917 236.056 16.5871 235.445 17.156C234.855 17.7038 234.096 17.9777 233.169 17.9777ZM235.887 39.7224C235.887 41.8926 235.34 43.4518 234.244 44.4C233.148 45.3693 231.621 45.8539 229.661 45.8539H227.543V41.2711H228.839C229.429 41.2711 229.851 41.1552 230.104 40.9234C230.356 40.6916 230.483 40.3124 230.483 39.7856V19.8108H235.887V39.7224ZM257.188 19.8108V37.4468H251.783V35.0447C251.235 35.8244 250.487 36.4565 249.539 36.9411C248.612 37.4046 247.58 37.6364 246.442 37.6364C245.093 37.6364 243.903 37.3414 242.87 36.7515C241.838 36.1404 241.037 35.266 240.468 34.1282C239.9 32.9904 239.615 31.6524 239.615 30.1143V19.8108H244.988V29.3873C244.988 30.5673 245.294 31.4838 245.905 32.137C246.516 32.7902 247.337 33.1168 248.37 33.1168C249.423 33.1168 250.256 32.7902 250.867 32.137C251.478 31.4838 251.783 30.5673 251.783 29.3873V19.8108H257.188ZM259.995 28.5972C259.995 26.7851 260.332 25.1943 261.007 23.8247C261.702 22.4552 262.64 21.4016 263.82 20.6642C265 19.9267 266.316 19.558 267.77 19.558C268.929 19.558 269.983 19.8003 270.931 20.2849C271.9 20.7695 272.659 21.4227 273.206 22.2445V14.0586H278.611V37.4468H273.206V34.9183C272.701 35.7611 271.974 36.4354 271.026 36.9411C270.099 37.4468 269.013 37.6996 267.77 37.6996C266.316 37.6996 265 37.3309 263.82 36.5934C262.64 35.8349 261.702 34.7708 261.007 33.4013C260.332 32.0106 259.995 30.4093 259.995 28.5972ZM273.206 28.6288C273.206 27.2803 272.827 26.2162 272.069 25.4366C271.331 24.657 270.425 24.2672 269.351 24.2672C268.276 24.2672 267.359 24.657 266.601 25.4366C265.863 26.1952 265.495 27.2487 265.495 28.5972C265.495 29.9457 265.863 31.0203 266.601 31.821C267.359 32.6006 268.276 32.9904 269.351 32.9904C270.425 32.9904 271.331 32.6006 272.069 31.821C272.827 31.0414 273.206 29.9773 273.206 28.6288ZM281.446 28.5972C281.446 26.7851 281.784 25.1943 282.458 23.8247C283.153 22.4552 284.091 21.4016 285.271 20.6642C286.451 19.9267 287.768 19.558 289.221 19.558C290.465 19.558 291.55 19.8108 292.477 20.3165C293.425 20.8222 294.152 21.4859 294.658 22.3077V19.8108H300.062V37.4468H294.658V34.9499C294.131 35.7717 293.393 36.4354 292.445 36.9411C291.518 37.4468 290.433 37.6996 289.19 37.6996C287.757 37.6996 286.451 37.3309 285.271 36.5934C284.091 35.8349 283.153 34.7708 282.458 33.4013C281.784 32.0106 281.446 30.4093 281.446 28.5972ZM294.658 28.6288C294.658 27.2803 294.278 26.2162 293.52 25.4366C292.782 24.657 291.876 24.2672 290.802 24.2672C289.727 24.2672 288.81 24.657 288.052 25.4366C287.314 26.1952 286.946 27.2487 286.946 28.5972C286.946 29.9457 287.314 31.0203 288.052 31.821C288.81 32.6006 289.727 32.9904 290.802 32.9904C291.876 32.9904 292.782 32.6006 293.52 31.821C294.278 31.0414 294.658 29.9773 294.658 28.6288Z" fill="#DEDEDE"/>
<path d="M94.1576 49.5884V60.1321H92.4281V52.9108L89.2119 60.1321H88.0134L84.7821 52.9108V60.1321H83.0526V49.5884H84.9186L88.6202 57.8565L92.3067 49.5884H94.1576ZM95.8542 55.9146C95.8542 55.0752 96.0261 54.3318 96.37 53.6845C96.724 53.0372 97.1993 52.5366 97.796 52.1826C98.4029 51.8185 99.0704 51.6365 99.7986 51.6365C100.456 51.6365 101.027 51.768 101.513 52.0309C102.008 52.2838 102.403 52.6024 102.696 52.9867V51.773H104.441V60.1321H102.696V58.8881C102.403 59.2825 102.003 59.6112 101.498 59.8742C100.992 60.1371 100.416 60.2686 99.7682 60.2686C99.0502 60.2686 98.3928 60.0866 97.796 59.7225C97.1993 59.3483 96.724 58.8325 96.37 58.1751C96.0261 57.5075 95.8542 56.7541 95.8542 55.9146ZM102.696 55.945C102.696 55.3685 102.575 54.8678 102.332 54.4431C102.099 54.0183 101.791 53.6946 101.407 53.4721C101.022 53.2496 100.608 53.1384 100.163 53.1384C99.7177 53.1384 99.303 53.2496 98.9187 53.4721C98.5343 53.6845 98.2208 54.0031 97.9781 54.4279C97.7455 54.8426 97.6292 55.3381 97.6292 55.9146C97.6292 56.4911 97.7455 56.9968 97.9781 57.4317C98.2208 57.8666 98.5343 58.2003 98.9187 58.433C99.3131 58.6555 99.7278 58.7667 100.163 58.7667C100.608 58.7667 101.022 58.6555 101.407 58.433C101.791 58.2105 102.099 57.8868 102.332 57.462C102.575 57.0271 102.696 56.5215 102.696 55.945ZM101.998 49.5278L98.6456 51.1814V49.907L101.998 48.0562V49.5278ZM106.136 55.9146C106.136 55.0752 106.308 54.3318 106.652 53.6845C107.006 53.0372 107.481 52.5366 108.078 52.1826C108.685 51.8185 109.357 51.6365 110.095 51.6365C110.743 51.6365 111.314 51.768 111.81 52.0309C112.315 52.2939 112.705 52.6125 112.978 52.9867V51.773H114.723V64.1068H112.978V58.9184C112.705 59.2926 112.31 59.6112 111.795 59.8742C111.279 60.1371 110.692 60.2686 110.035 60.2686C109.317 60.2686 108.659 60.0866 108.063 59.7225C107.476 59.3483 107.006 58.8325 106.652 58.1751C106.308 57.5075 106.136 56.7541 106.136 55.9146ZM112.978 55.945C112.978 55.3685 112.857 54.8678 112.614 54.4431C112.381 54.0183 112.073 53.6946 111.688 53.4721C111.304 53.2496 110.889 53.1384 110.444 53.1384C109.999 53.1384 109.585 53.2496 109.2 53.4721C108.816 53.6845 108.503 54.0031 108.26 54.4279C108.027 54.8426 107.911 55.3381 107.911 55.9146C107.911 56.4911 108.027 56.9968 108.26 57.4317C108.503 57.8666 108.816 58.2003 109.2 58.433C109.595 58.6555 110.009 58.7667 110.444 58.7667C110.889 58.7667 111.304 58.6555 111.688 58.433C112.073 58.2105 112.381 57.8868 112.614 57.462C112.857 57.0271 112.978 56.5215 112.978 55.945ZM124.564 51.773V60.1321H122.835V59.146C122.562 59.4899 122.203 59.7629 121.758 59.9652C121.323 60.1574 120.858 60.2534 120.362 60.2534C119.705 60.2534 119.113 60.1169 118.587 59.8438C118.071 59.5708 117.662 59.1662 117.358 58.6302C117.065 58.0941 116.918 57.4469 116.918 56.6883V51.773H118.633V56.4304C118.633 57.1788 118.82 57.7553 119.194 58.1599C119.568 58.5543 120.079 58.7515 120.726 58.7515C121.373 58.7515 121.884 58.5543 122.258 58.1599C122.643 57.7553 122.835 57.1788 122.835 56.4304V51.773H124.564ZM127.726 50.6656C127.413 50.6656 127.15 50.5594 126.937 50.347C126.725 50.1346 126.619 49.8716 126.619 49.5581C126.619 49.2446 126.725 48.9816 126.937 48.7692C127.15 48.5568 127.413 48.4506 127.726 48.4506C128.029 48.4506 128.287 48.5568 128.5 48.7692C128.712 48.9816 128.818 49.2446 128.818 49.5581C128.818 49.8716 128.712 50.1346 128.5 50.347C128.287 50.5594 128.029 50.6656 127.726 50.6656ZM128.576 51.773V60.1321H126.846V51.773H128.576ZM135.064 51.6365C135.721 51.6365 136.308 51.773 136.824 52.0461C137.349 52.3192 137.759 52.7237 138.052 53.2597C138.346 53.7958 138.492 54.4431 138.492 55.2016V60.1321H136.778V55.4595C136.778 54.7111 136.591 54.1396 136.217 53.7452C135.842 53.3407 135.332 53.1384 134.684 53.1384C134.037 53.1384 133.521 53.3407 133.137 53.7452C132.763 54.1396 132.576 54.7111 132.576 55.4595V60.1321H130.846V51.773H132.576V52.7288C132.859 52.3849 133.218 52.1169 133.653 51.9247C134.098 51.7326 134.568 51.6365 135.064 51.6365ZM140.122 55.9146C140.122 55.0752 140.294 54.3318 140.638 53.6845C140.992 53.0372 141.467 52.5366 142.064 52.1826C142.671 51.8185 143.338 51.6365 144.066 51.6365C144.724 51.6365 145.295 51.768 145.781 52.0309C146.276 52.2838 146.671 52.6024 146.964 52.9867V51.773H148.708V60.1321H146.964V58.8881C146.671 59.2825 146.271 59.6112 145.765 59.8742C145.26 60.1371 144.683 60.2686 144.036 60.2686C143.318 60.2686 142.66 60.0866 142.064 59.7225C141.467 59.3483 140.992 58.8325 140.638 58.1751C140.294 57.5075 140.122 56.7541 140.122 55.9146ZM146.964 55.945C146.964 55.3685 146.842 54.8678 146.6 54.4431C146.367 54.0183 146.059 53.6946 145.674 53.4721C145.29 53.2496 144.875 53.1384 144.43 53.1384C143.985 53.1384 143.571 53.2496 143.186 53.4721C142.802 53.6845 142.488 54.0031 142.246 54.4279C142.013 54.8426 141.897 55.3381 141.897 55.9146C141.897 56.4911 142.013 56.9968 142.246 57.4317C142.488 57.8666 142.802 58.2003 143.186 58.433C143.581 58.6555 143.995 58.7667 144.43 58.7667C144.875 58.7667 145.29 58.6555 145.674 58.433C146.059 58.2105 146.367 57.8868 146.6 57.462C146.842 57.0271 146.964 56.5215 146.964 55.945ZM154.014 60.2686C153.357 60.2686 152.765 60.1523 152.239 59.9197C151.723 59.677 151.314 59.3533 151.01 58.9488C150.707 58.5341 150.545 58.0739 150.525 57.5682H152.315C152.345 57.9222 152.512 58.2206 152.816 58.4633C153.129 58.6959 153.519 58.8122 153.984 58.8122C154.469 58.8122 154.844 58.7212 155.106 58.5392C155.38 58.347 155.516 58.1043 155.516 57.811C155.516 57.4974 155.364 57.2648 155.061 57.1131C154.768 56.9614 154.297 56.7945 153.65 56.6125C153.023 56.4405 152.512 56.2737 152.118 56.1118C151.723 55.95 151.38 55.7022 151.086 55.3685C150.803 55.0347 150.661 54.5948 150.661 54.0486C150.661 53.6036 150.793 53.1991 151.056 52.835C151.319 52.4608 151.693 52.1675 152.179 51.9551C152.674 51.7427 153.24 51.6365 153.878 51.6365C154.828 51.6365 155.592 51.8792 156.168 52.3647C156.755 52.84 157.069 53.4924 157.109 54.3217H155.38C155.349 53.9475 155.197 53.6491 154.924 53.4266C154.651 53.2041 154.282 53.0929 153.817 53.0929C153.362 53.0929 153.013 53.1788 152.77 53.3508C152.527 53.5227 152.406 53.7503 152.406 54.0335C152.406 54.256 152.487 54.4431 152.649 54.5948C152.811 54.7465 153.008 54.8678 153.24 54.9589C153.473 55.0398 153.817 55.146 154.272 55.2775C154.879 55.4393 155.374 55.6062 155.759 55.7781C156.153 55.9399 156.492 56.1826 156.775 56.5063C157.058 56.8299 157.205 57.2598 157.215 57.7958C157.215 58.2711 157.084 58.6959 156.821 59.0701C156.558 59.4443 156.184 59.7376 155.698 59.95C155.223 60.1624 154.661 60.2686 154.014 60.2686ZM170.686 55.7477C170.686 56.0613 170.666 56.3445 170.625 56.5973H164.238C164.289 57.2648 164.537 57.8008 164.982 58.2054C165.427 58.61 165.973 58.8122 166.62 58.8122C167.551 58.8122 168.208 58.4228 168.592 57.6441H170.458C170.206 58.4127 169.745 59.0448 169.078 59.5404C168.42 60.0259 167.601 60.2686 166.62 60.2686C165.821 60.2686 165.103 60.0916 164.466 59.7376C163.839 59.3735 163.343 58.8679 162.979 58.2206C162.625 57.5632 162.448 56.8046 162.448 55.945C162.448 55.0853 162.62 54.3318 162.964 53.6845C163.318 53.0271 163.809 52.5214 164.436 52.1675C165.073 51.8135 165.801 51.6365 166.62 51.6365C167.409 51.6365 168.112 51.8084 168.729 52.1523C169.346 52.4962 169.826 52.9816 170.17 53.6087C170.514 54.2256 170.686 54.9386 170.686 55.7477ZM168.881 55.2016C168.871 54.5644 168.643 54.0537 168.198 53.6694C167.753 53.285 167.202 53.0929 166.544 53.0929C165.948 53.0929 165.437 53.285 165.012 53.6694C164.587 54.0436 164.334 54.5543 164.254 55.2016H168.881ZM178.058 50.9841V54.079H181.699V55.4898H178.058V58.7212H182.154V60.1321H176.329V49.5733H182.154V50.9841H178.058ZM183.708 55.9146C183.708 55.0752 183.88 54.3318 184.224 53.6845C184.578 53.0372 185.053 52.5366 185.65 52.1826C186.257 51.8185 186.929 51.6365 187.668 51.6365C188.315 51.6365 188.886 51.768 189.382 52.0309C189.888 52.2939 190.277 52.6125 190.55 52.9867V51.773H192.295V64.1068H190.55V58.9184C190.277 59.2926 189.882 59.6112 189.367 59.8742C188.851 60.1371 188.264 60.2686 187.607 60.2686C186.889 60.2686 186.231 60.0866 185.635 59.7225C185.048 59.3483 184.578 58.8325 184.224 58.1751C183.88 57.5075 183.708 56.7541 183.708 55.9146ZM190.55 55.945C190.55 55.3685 190.429 54.8678 190.186 54.4431C189.953 54.0183 189.645 53.6946 189.26 53.4721C188.876 53.2496 188.461 53.1384 188.016 53.1384C187.571 53.1384 187.157 53.2496 186.772 53.4721C186.388 53.6845 186.075 54.0031 185.832 54.4279C185.599 54.8426 185.483 55.3381 185.483 55.9146C185.483 56.4911 185.599 56.9968 185.832 57.4317C186.075 57.8666 186.388 58.2003 186.772 58.433C187.167 58.6555 187.582 58.7667 188.016 58.7667C188.461 58.7667 188.876 58.6555 189.26 58.433C189.645 58.2105 189.953 57.8868 190.186 57.462C190.429 57.0271 190.55 56.5215 190.55 55.945ZM202.136 51.773V60.1321H200.407V59.146C200.134 59.4899 199.775 59.7629 199.33 59.9652C198.895 60.1574 198.43 60.2534 197.934 60.2534C197.277 60.2534 196.685 60.1169 196.159 59.8438C195.643 59.5708 195.234 59.1662 194.93 58.6302C194.637 58.0941 194.49 57.4469 194.49 56.6883V51.773H196.205V56.4304C196.205 57.1788 196.392 57.7553 196.766 58.1599C197.14 58.5543 197.651 58.7515 198.298 58.7515C198.945 58.7515 199.456 58.5543 199.83 58.1599C200.215 57.7553 200.407 57.1788 200.407 56.4304V51.773H202.136ZM205.298 50.6656C204.985 50.6656 204.722 50.5594 204.509 50.347C204.297 50.1346 204.191 49.8716 204.191 49.5581C204.191 49.2446 204.297 48.9816 204.509 48.7692C204.722 48.5568 204.985 48.4506 205.298 48.4506C205.602 48.4506 205.859 48.5568 206.072 48.7692C206.284 48.9816 206.39 49.2446 206.39 49.5581C206.39 49.8716 206.284 50.1346 206.072 50.347C205.859 50.5594 205.602 50.6656 205.298 50.6656ZM206.148 51.773V60.1321H204.418V51.773H206.148ZM210.148 53.0018C210.441 52.6175 210.841 52.2939 211.346 52.0309C211.852 51.768 212.423 51.6365 213.061 51.6365C213.789 51.6365 214.451 51.8185 215.048 52.1826C215.655 52.5366 216.13 53.0372 216.474 53.6845C216.818 54.3318 216.99 55.0752 216.99 55.9146C216.99 56.7541 216.818 57.5075 216.474 58.1751C216.13 58.8325 215.655 59.3483 215.048 59.7225C214.451 60.0866 213.789 60.2686 213.061 60.2686C212.423 60.2686 211.857 60.1422 211.361 59.8893C210.866 59.6264 210.461 59.3027 210.148 58.9184V64.1068H208.418V51.773H210.148V53.0018ZM215.23 55.9146C215.23 55.3381 215.109 54.8426 214.866 54.4279C214.633 54.0031 214.32 53.6845 213.925 53.4721C213.541 53.2496 213.126 53.1384 212.681 53.1384C212.246 53.1384 211.832 53.2496 211.437 53.4721C211.053 53.6946 210.739 54.0183 210.497 54.4431C210.264 54.8678 210.148 55.3685 210.148 55.945C210.148 56.5215 210.264 57.0271 210.497 57.462C210.739 57.8868 211.053 58.2105 211.437 58.433C211.832 58.6555 212.246 58.7667 212.681 58.7667C213.126 58.7667 213.541 58.6555 213.925 58.433C214.32 58.2003 214.633 57.8666 214.866 57.4317C215.109 56.9968 215.23 56.4911 215.23 55.9146ZM218.124 55.9146C218.124 55.0752 218.296 54.3318 218.639 53.6845C218.993 53.0372 219.469 52.5366 220.065 52.1826C220.672 51.8185 221.34 51.6365 222.068 51.6365C222.725 51.6365 223.297 51.768 223.782 52.0309C224.278 52.2838 224.672 52.6024 224.966 52.9867V51.773H226.71V60.1321H224.966V58.8881C224.672 59.2825 224.273 59.6112 223.767 59.8742C223.261 60.1371 222.685 60.2686 222.038 60.2686C221.32 60.2686 220.662 60.0866 220.065 59.7225C219.469 59.3483 218.993 58.8325 218.639 58.1751C218.296 57.5075 218.124 56.7541 218.124 55.9146ZM224.966 55.945C224.966 55.3685 224.844 54.8678 224.601 54.4431C224.369 54.0183 224.06 53.6946 223.676 53.4721C223.292 53.2496 222.877 53.1384 222.432 53.1384C221.987 53.1384 221.572 53.2496 221.188 53.4721C220.804 53.6845 220.49 54.0031 220.247 54.4279C220.015 54.8426 219.899 55.3381 219.899 55.9146C219.899 56.4911 220.015 56.9968 220.247 57.4317C220.49 57.8666 220.804 58.2003 221.188 58.433C221.583 58.6555 221.997 58.7667 222.432 58.7667C222.877 58.7667 223.292 58.6555 223.676 58.433C224.06 58.2105 224.369 57.8868 224.601 57.462C224.844 57.0271 224.966 56.5215 224.966 55.945ZM239.101 51.6365C239.758 51.6365 240.345 51.773 240.86 52.0461C241.386 52.3192 241.796 52.7237 242.089 53.2597C242.393 53.7958 242.544 54.4431 242.544 55.2016V60.1321H240.83V55.4595C240.83 54.7111 240.643 54.1396 240.269 53.7452C239.895 53.3407 239.384 53.1384 238.737 53.1384C238.089 53.1384 237.573 53.3407 237.189 53.7452C236.815 54.1396 236.628 54.7111 236.628 55.4595V60.1321H234.914V55.4595C234.914 54.7111 234.726 54.1396 234.352 53.7452C233.978 53.3407 233.467 53.1384 232.82 53.1384C232.173 53.1384 231.657 53.3407 231.273 53.7452C230.898 54.1396 230.711 54.7111 230.711 55.4595V60.1321H228.982V51.773H230.711V52.7288C230.994 52.3849 231.353 52.1169 231.788 51.9247C232.223 51.7326 232.688 51.6365 233.184 51.6365C233.852 51.6365 234.448 51.7781 234.974 52.0613C235.5 52.3444 235.905 52.7541 236.188 53.2901C236.441 52.7844 236.835 52.3849 237.371 52.0916C237.907 51.7882 238.484 51.6365 239.101 51.6365ZM252.406 55.7477C252.406 56.0613 252.386 56.3445 252.346 56.5973H245.959C246.009 57.2648 246.257 57.8008 246.702 58.2054C247.147 58.61 247.693 58.8122 248.341 58.8122C249.271 58.8122 249.928 58.4228 250.313 57.6441H252.179C251.926 58.4127 251.466 59.0448 250.798 59.5404C250.141 60.0259 249.322 60.2686 248.341 60.2686C247.542 60.2686 246.823 60.0916 246.186 59.7376C245.559 59.3735 245.064 58.8679 244.7 58.2206C244.346 57.5632 244.169 56.8046 244.169 55.945C244.169 55.0853 244.341 54.3318 244.684 53.6845C245.038 53.0271 245.529 52.5214 246.156 52.1675C246.793 51.8135 247.521 51.6365 248.341 51.6365C249.129 51.6365 249.832 51.8084 250.449 52.1523C251.066 52.4962 251.547 52.9816 251.89 53.6087C252.234 54.2256 252.406 54.9386 252.406 55.7477ZM250.601 55.2016C250.591 54.5644 250.363 54.0537 249.918 53.6694C249.473 53.285 248.922 53.0929 248.265 53.0929C247.668 53.0929 247.157 53.285 246.732 53.6694C246.308 54.0436 246.055 54.5543 245.974 55.2016H250.601ZM258.326 51.6365C258.983 51.6365 259.57 51.773 260.086 52.0461C260.611 52.3192 261.021 52.7237 261.314 53.2597C261.608 53.7958 261.754 54.4431 261.754 55.2016V60.1321H260.04V55.4595C260.04 54.7111 259.853 54.1396 259.479 53.7452C259.104 53.3407 258.594 53.1384 257.946 53.1384C257.299 53.1384 256.783 53.3407 256.399 53.7452C256.025 54.1396 255.838 54.7111 255.838 55.4595V60.1321H254.108V51.773H255.838V52.7288C256.121 52.3849 256.48 52.1169 256.915 51.9247C257.36 51.7326 257.83 51.6365 258.326 51.6365ZM265.978 53.1839V57.811C265.978 58.1245 266.049 58.3521 266.19 58.4936C266.342 58.6251 266.595 58.6909 266.949 58.6909H268.011V60.1321H266.646C265.867 60.1321 265.27 59.95 264.855 59.5859C264.441 59.2218 264.233 58.6302 264.233 57.811V53.1839H263.247V51.773H264.233V49.6946H265.978V51.773H268.011V53.1839H265.978ZM273.231 60.2686C272.442 60.2686 271.729 60.0916 271.092 59.7376C270.454 59.3735 269.954 58.8679 269.59 58.2206C269.226 57.5632 269.044 56.8046 269.044 55.945C269.044 55.0954 269.231 54.3419 269.605 53.6845C269.979 53.0271 270.49 52.5214 271.137 52.1675C271.784 51.8135 272.508 51.6365 273.307 51.6365C274.106 51.6365 274.829 51.8135 275.476 52.1675C276.123 52.5214 276.634 53.0271 277.008 53.6845C277.382 54.3419 277.57 55.0954 277.57 55.945C277.57 56.7945 277.377 57.548 276.993 58.2054C276.609 58.8628 276.083 59.3735 275.415 59.7376C274.758 60.0916 274.03 60.2686 273.231 60.2686ZM273.231 58.7667C273.676 58.7667 274.09 58.6605 274.475 58.4481C274.869 58.2357 275.188 57.9172 275.43 57.4924C275.673 57.0676 275.795 56.5518 275.795 55.945C275.795 55.3381 275.678 54.8274 275.446 54.4127C275.213 53.9879 274.905 53.6694 274.52 53.457C274.136 53.2446 273.721 53.1384 273.276 53.1384C272.831 53.1384 272.417 53.2446 272.032 53.457C271.658 53.6694 271.36 53.9879 271.137 54.4127C270.915 54.8274 270.803 55.3381 270.803 55.945C270.803 56.8451 271.031 57.5429 271.486 58.0385C271.951 58.524 272.533 58.7667 273.231 58.7667ZM282.313 60.2686C281.656 60.2686 281.064 60.1523 280.538 59.9197C280.023 59.677 279.613 59.3533 279.31 58.9488C279.006 58.5341 278.844 58.0739 278.824 57.5682H280.614C280.645 57.9222 280.811 58.2206 281.115 58.4633C281.428 58.6959 281.818 58.8122 282.283 58.8122C282.768 58.8122 283.143 58.7212 283.406 58.5392C283.679 58.347 283.815 58.1043 283.815 57.811C283.815 57.4974 283.664 57.2648 283.36 57.1131C283.067 56.9614 282.597 56.7945 281.949 56.6125C281.322 56.4405 280.811 56.2737 280.417 56.1118C280.023 55.95 279.679 55.7022 279.385 55.3685C279.102 55.0347 278.961 54.5948 278.961 54.0486C278.961 53.6036 279.092 53.1991 279.355 52.835C279.618 52.4608 279.992 52.1675 280.478 51.9551C280.973 51.7427 281.54 51.6365 282.177 51.6365C283.127 51.6365 283.891 51.8792 284.468 52.3647C285.054 52.84 285.368 53.4924 285.408 54.3217H283.679C283.648 53.9475 283.497 53.6491 283.224 53.4266C282.951 53.2041 282.581 53.0929 282.116 53.0929C281.661 53.0929 281.312 53.1788 281.069 53.3508C280.827 53.5227 280.705 53.7503 280.705 54.0335C280.705 54.256 280.786 54.4431 280.948 54.5948C281.11 54.7465 281.307 54.8678 281.54 54.9589C281.772 55.0398 282.116 55.146 282.571 55.2775C283.178 55.4393 283.674 55.6062 284.058 55.7781C284.452 55.9399 284.791 56.1826 285.074 56.5063C285.358 56.8299 285.504 57.2598 285.514 57.7958C285.514 58.2711 285.383 58.6959 285.12 59.0701C284.857 59.4443 284.483 59.7376 283.997 59.95C283.522 60.1624 282.961 60.2686 282.313 60.2686Z" fill="#DEDEDE"/>
<path d="M74.5244 70H58.3432C54.8462 70 51.5467 68.2811 49.5315 65.4163L5.9667 3.20068C5.88767 3.06896 5.80205 2.94383 5.70985 2.82529C5.49911 2.53552 5.26202 2.27209 4.99859 2.035C3.71437 0.770534 1.95597 0 0 0H16.5368C20.0536 0 23.3333 1.71888 25.3486 4.58369L68.9529 66.8586C70.1778 68.6565 72.2128 69.8815 74.5244 70Z" fill="#DEDEDE"/>
<path style="mix-blend-mode:multiply" d="M74.5244 70H58.3432C54.8462 70 51.5467 68.2811 49.5315 65.4163L5.9667 3.20068C5.88767 3.06896 5.80205 2.94383 5.70985 2.82529C5.49911 2.53552 5.26202 2.27209 4.99859 2.035C3.71437 0.770534 1.95597 0 0 0H16.5368C20.0536 0 23.3333 1.71888 25.3486 4.58369L68.9529 66.8586C70.1778 68.6565 72.2128 69.8815 74.5244 70Z" fill="white"/>
<g style="mix-blend-mode:multiply" opacity="0.5">
<path d="M35.6419 45.5603L46.5084 61.0895C46.4097 54.6289 45.7182 41.5693 41.9445 28.2924L25.3484 4.58371C23.8271 2.39066 21.5353 0.889105 18.9866 0.296387C27.8773 13.8301 31.2953 30.0508 35.6419 45.5603Z" fill="#DEDEDE"/>
</g>
<path style="mix-blend-mode:overlay" d="M74.5242 70C72.2126 69.8815 70.1776 68.6565 68.9526 66.8586L51.8626 42.4584C50.8155 49.4327 50.7562 59.0742 54.9052 69.427C55.9918 69.8024 57.1575 70 58.343 70H74.5242Z" fill="white"/>
<path d="M24.6373 3.69461C22.6023 1.36325 19.6585 0 16.5368 0H0C1.95597 0 3.71437 0.770534 4.99859 2.035C5.26202 2.27209 5.4991 2.53552 5.70985 2.82529C5.80205 2.94383 5.88767 3.06896 5.9667 3.20068L44.4143 58.1061C39.7516 23.5704 24.6373 3.69461 24.6373 3.69461Z" fill="#DEDEDE"/>
<path style="mix-blend-mode:multiply" d="M24.6373 3.69461C22.6023 1.36325 19.6585 0 16.5368 0H0C1.95597 0 3.71437 0.770534 4.99859 2.035C5.26202 2.27209 5.4991 2.53552 5.70985 2.82529C5.80205 2.94383 5.88767 3.06896 5.9667 3.20068L44.4143 58.1061C39.7516 23.5704 24.6373 3.69461 24.6373 3.69461Z" fill="white"/>
<path style="mix-blend-mode:overlay" d="M10.1157 0H0C1.95597 0 3.71437 0.770534 4.99859 2.035C5.26202 2.27209 5.4991 2.53552 5.70985 2.82529C5.80205 2.94383 5.88767 3.06896 5.9667 3.20068L32.3624 40.8975C31.2758 29.8137 26.9489 8.12024 10.1157 0Z" fill="white"/>
<path d="M22.1285 30.4855V59.2323C22.1285 65.1793 17.3077 70 11.3608 70H7.05371V8.95007L22.1285 30.4855Z" fill="#DEDEDE"/>
<path style="mix-blend-mode:multiply" d="M22.1285 30.4855V59.2323C22.1285 65.1793 17.3077 70 11.3608 70H7.05371V8.95007L22.1285 30.4855Z" fill="white"/>
<path style="mix-blend-mode:overlay" d="M11.7756 69.9803C17.525 69.763 22.1284 65.041 22.1284 59.2324V44.1378C19.2834 47.3385 13.1389 55.7749 11.7756 69.9803Z" fill="white"/>
<path d="M7.05371 49.5117C17.6436 42.5374 22.1285 30.4855 22.1285 30.4855L7.05371 8.95007V49.5117Z" fill="#DEDEDE"/>
<path style="mix-blend-mode:multiply" d="M7.05371 49.5117C17.6436 42.5374 22.1285 30.4855 22.1285 30.4855L7.05371 8.95007V49.5117Z" fill="white"/>
<g style="mix-blend-mode:multiply" opacity="0.5">
<path d="M7.05396 43.7229V49.5118C17.6439 42.5374 22.1287 30.4855 22.1287 30.4855L20.9433 28.7864C16.3004 37.0252 10.6893 41.5101 7.05396 43.7229Z" fill="#DEDEDE"/>
</g>
<path style="mix-blend-mode:overlay" d="M7.05371 31.4734C9.83949 29.221 13.2772 25.8821 15.9247 21.6145L7.05371 8.95007V31.4734Z" fill="white"/>
<path d="M52.7322 39.5145V10.7677C52.7322 4.82078 57.553 0 63.4999 0H67.8267V61.05L52.7322 39.5145Z" fill="#DEDEDE"/>
<path style="mix-blend-mode:multiply" d="M52.7322 39.5145V10.7677C52.7322 4.82078 57.553 0 63.4999 0H67.8267V61.05L52.7322 39.5145Z" fill="white"/>
<path style="mix-blend-mode:overlay" d="M63.1047 0.0197754C57.3554 0.237105 52.7322 4.95909 52.7322 10.7677V25.8623C55.5772 22.6616 61.7415 14.2253 63.1047 0.0197754Z" fill="white"/>
<g style="mix-blend-mode:multiply" opacity="0.5">
<path d="M52.7322 32.5995V39.5145C52.7322 39.5145 57.2368 27.4626 67.8267 20.4883V18.1964C59.3904 22.2071 54.8264 28.7073 52.7322 32.5995Z" fill="#DEDEDE"/>
</g>
<path d="M67.8267 20.4883C57.2368 27.4626 52.7322 39.5145 52.7322 39.5145L67.8267 61.05V20.4883Z" fill="#DEDEDE"/>
<path style="mix-blend-mode:multiply" d="M67.8267 20.4883C57.2368 27.4626 52.7322 39.5145 52.7322 39.5145L67.8267 61.05V20.4883Z" fill="white"/>
<path style="mix-blend-mode:overlay" d="M57.0789 45.6986L67.8268 61.05V31.1375C62.5319 36.1163 59.1336 41.51 57.0789 45.6986Z" fill="white"/>
</svg>
