<svg width="369" height="70" viewBox="0 0 369 70" fill="none" xmlns="http://www.w3.org/2000/svg">
<path d="M103.723 37.4468H98.3184L89.2792 23.7615V37.4468H83.8746V15.2596H89.2792L98.3184 29.0081V15.2596H103.723V37.4468ZM110.359 17.9777C109.41 17.9777 108.631 17.7038 108.02 17.156C107.43 16.5871 107.135 15.8917 107.135 15.07C107.135 14.2272 107.43 13.5318 108.02 12.984C108.631 12.4151 109.41 12.1307 110.359 12.1307C111.286 12.1307 112.044 12.4151 112.634 12.984C113.245 13.5318 113.551 14.2272 113.551 15.07C113.551 15.8917 113.245 16.5871 112.634 17.156C112.044 17.7038 111.286 17.9777 110.359 17.9777ZM113.045 19.8108V37.4468H107.641V19.8108H113.045ZM115.887 28.6288C115.887 26.7957 116.256 25.1943 116.993 23.8247C117.752 22.4552 118.795 21.4016 120.122 20.6642C121.471 19.9267 123.009 19.558 124.737 19.558C126.949 19.558 128.793 20.1374 130.268 21.2963C131.764 22.4552 132.743 24.0881 133.207 26.1952H127.455C126.97 24.8467 126.033 24.1724 124.642 24.1724C123.652 24.1724 122.861 24.5622 122.271 25.3418C121.682 26.1004 121.387 27.196 121.387 28.6288C121.387 30.0616 121.682 31.1678 122.271 31.9474C122.861 32.7059 123.652 33.0852 124.642 33.0852C126.033 33.0852 126.97 32.4109 127.455 31.0624H133.207C132.743 33.1273 131.764 34.7498 130.268 35.9297C128.772 37.1097 126.928 37.6996 124.737 37.6996C123.009 37.6996 121.471 37.3309 120.122 36.5934C118.795 35.856 117.752 34.8024 116.993 33.4329C116.256 32.0633 115.887 30.4619 115.887 28.6288ZM146.875 37.4468L141.503 30.0511V37.4468H136.098V14.0586H141.503V26.9853L146.844 19.8108H153.513L146.18 28.6604L153.576 37.4468H146.875ZM178.294 15.2596V19.5896H172.415V37.4468H167.011V19.5896H161.132V15.2596H178.294ZM197.631 28.3444C197.631 28.85 197.599 29.3768 197.536 29.9246H185.305C185.389 31.0203 185.737 31.8631 186.348 32.4531C186.98 33.022 187.749 33.3064 188.655 33.3064C190.003 33.3064 190.941 32.7375 191.468 31.5997H197.22C196.925 32.7586 196.388 33.8016 195.608 34.7287C194.85 35.6558 193.891 36.3827 192.732 36.9095C191.573 37.4362 190.277 37.6996 188.845 37.6996C187.117 37.6996 185.579 37.3309 184.23 36.5934C182.882 35.856 181.828 34.8024 181.07 33.4329C180.311 32.0633 179.932 30.4619 179.932 28.6288C179.932 26.7957 180.301 25.1943 181.038 23.8247C181.797 22.4552 182.85 21.4016 184.199 20.6642C185.547 19.9267 187.096 19.558 188.845 19.558C190.551 19.558 192.068 19.9162 193.396 20.6326C194.723 21.349 195.756 22.3709 196.493 23.6983C197.252 25.0258 197.631 26.5744 197.631 28.3444ZM192.1 26.9221C192.1 25.995 191.784 25.2575 191.152 24.7097C190.52 24.1619 189.73 23.888 188.781 23.888C187.875 23.888 187.106 24.1513 186.474 24.6781C185.863 25.2049 185.484 25.9529 185.336 26.9221H192.1ZM220.991 33.5277H212.711L211.383 37.4468H205.726L213.754 15.2596H220.012L228.04 37.4468H222.319L220.991 33.5277ZM219.601 29.3557L216.851 21.2331L214.133 29.3557H219.601ZM233.169 17.9777C232.221 17.9777 231.441 17.7038 230.83 17.156C230.24 16.5871 229.945 15.8917 229.945 15.07C229.945 14.2272 230.24 13.5318 230.83 12.984C231.441 12.4151 232.221 12.1307 233.169 12.1307C234.096 12.1307 234.855 12.4151 235.445 12.984C236.056 13.5318 236.361 14.2272 236.361 15.07C236.361 15.8917 236.056 16.5871 235.445 17.156C234.855 17.7038 234.096 17.9777 233.169 17.9777ZM235.887 39.7224C235.887 41.8926 235.34 43.4518 234.244 44.4C233.148 45.3693 231.621 45.8539 229.661 45.8539H227.543V41.2711H228.839C229.429 41.2711 229.851 41.1552 230.104 40.9234C230.356 40.6916 230.483 40.3124 230.483 39.7856V19.8108H235.887V39.7224ZM257.188 19.8108V37.4468H251.783V35.0447C251.235 35.8244 250.487 36.4565 249.539 36.9411C248.612 37.4046 247.58 37.6364 246.442 37.6364C245.093 37.6364 243.903 37.3414 242.87 36.7515C241.838 36.1404 241.037 35.266 240.468 34.1282C239.9 32.9904 239.615 31.6524 239.615 30.1143V19.8108H244.988V29.3873C244.988 30.5673 245.294 31.4838 245.905 32.137C246.516 32.7902 247.337 33.1168 248.37 33.1168C249.423 33.1168 250.256 32.7902 250.867 32.137C251.478 31.4838 251.783 30.5673 251.783 29.3873V19.8108H257.188ZM259.995 28.5972C259.995 26.7851 260.332 25.1943 261.007 23.8247C261.702 22.4552 262.64 21.4016 263.82 20.6642C265 19.9267 266.316 19.558 267.77 19.558C268.929 19.558 269.983 19.8003 270.931 20.2849C271.9 20.7695 272.659 21.4227 273.206 22.2445V14.0586H278.611V37.4468H273.206V34.9183C272.701 35.7611 271.974 36.4354 271.026 36.9411C270.099 37.4468 269.013 37.6996 267.77 37.6996C266.316 37.6996 265 37.3309 263.82 36.5934C262.64 35.8349 261.702 34.7708 261.007 33.4013C260.332 32.0106 259.995 30.4093 259.995 28.5972ZM273.206 28.6288C273.206 27.2803 272.827 26.2162 272.069 25.4366C271.331 24.657 270.425 24.2672 269.351 24.2672C268.276 24.2672 267.359 24.657 266.601 25.4366C265.863 26.1952 265.495 27.2487 265.495 28.5972C265.495 29.9457 265.863 31.0203 266.601 31.821C267.359 32.6006 268.276 32.9904 269.351 32.9904C270.425 32.9904 271.331 32.6006 272.069 31.821C272.827 31.0414 273.206 29.9773 273.206 28.6288ZM281.446 28.5972C281.446 26.7851 281.784 25.1943 282.458 23.8247C283.153 22.4552 284.091 21.4016 285.271 20.6642C286.451 19.9267 287.768 19.558 289.221 19.558C290.465 19.558 291.55 19.8108 292.477 20.3165C293.425 20.8222 294.152 21.4859 294.658 22.3077V19.8108H300.062V37.4468H294.658V34.9499C294.131 35.7717 293.393 36.4354 292.445 36.9411C291.518 37.4468 290.433 37.6996 289.19 37.6996C287.757 37.6996 286.451 37.3309 285.271 36.5934C284.091 35.8349 283.153 34.7708 282.458 33.4013C281.784 32.0106 281.446 30.4093 281.446 28.5972ZM294.658 28.6288C294.658 27.2803 294.278 26.2162 293.52 25.4366C292.782 24.657 291.876 24.2672 290.802 24.2672C289.727 24.2672 288.81 24.657 288.052 25.4366C287.314 26.1952 286.946 27.2487 286.946 28.5972C286.946 29.9457 287.314 31.0203 288.052 31.821C288.81 32.6006 289.727 32.9904 290.802 32.9904C291.876 32.9904 292.782 32.6006 293.52 31.821C294.278 31.0414 294.658 29.9773 294.658 28.6288Z" fill="white"/>
<path d="M84.7821 50.9842V54.079H88.423V55.4899H84.7821V58.7213H88.8782V60.1321H83.0526V49.5733H88.8782V50.9842H84.7821ZM94.0425 60.2687C93.3851 60.2687 92.7934 60.1524 92.2675 59.9198C91.7517 59.677 91.3421 59.3534 91.0387 58.9488C90.7353 58.5342 90.5734 58.074 90.5532 57.5683H92.3434C92.3737 57.9223 92.5406 58.2206 92.844 58.4634C93.1575 58.696 93.5469 58.8123 94.0121 58.8123C94.4976 58.8123 94.8718 58.7213 95.1348 58.5392C95.4078 58.3471 95.5444 58.1043 95.5444 57.811C95.5444 57.4975 95.3927 57.2649 95.0893 57.1132C94.796 56.9615 94.3257 56.7946 93.6784 56.6125C93.0513 56.4406 92.5406 56.2737 92.1461 56.1119C91.7517 55.9501 91.4078 55.7023 91.1145 55.3685C90.8313 55.0348 90.6897 54.5948 90.6897 54.0487C90.6897 53.6037 90.8212 53.1991 91.0842 52.835C91.3471 52.4608 91.7214 52.1675 92.2068 51.9551C92.7024 51.7427 93.2688 51.6365 93.9059 51.6365C94.8566 51.6365 95.6202 51.8793 96.1967 52.3647C96.7833 52.8401 97.0968 53.4924 97.1373 54.3218H95.4078C95.3775 53.9475 95.2258 53.6492 94.9527 53.4267C94.6796 53.2042 94.3105 53.0929 93.8453 53.0929C93.3901 53.0929 93.0412 53.1789 92.7985 53.3508C92.5557 53.5228 92.4344 53.7503 92.4344 54.0335C92.4344 54.256 92.5153 54.4431 92.6771 54.5948C92.8389 54.7465 93.0361 54.8679 93.2688 54.9589C93.5014 55.0398 93.8453 55.146 94.3004 55.2775C94.9072 55.4393 95.4028 55.6062 95.7871 55.7781C96.1815 55.94 96.5204 56.1827 96.8035 56.5063C97.0867 56.83 97.2334 57.2598 97.2435 57.7959C97.2435 58.2712 97.112 58.696 96.8491 59.0702C96.5861 59.4444 96.2119 59.7377 95.7264 59.9501C95.2511 60.1625 94.6898 60.2687 94.0425 60.2687ZM100.842 53.0019C101.135 52.6176 101.534 52.2939 102.04 52.031C102.546 51.768 103.117 51.6365 103.754 51.6365C104.483 51.6365 105.145 51.8186 105.742 52.1827C106.349 52.5367 106.824 53.0373 107.168 53.6846C107.512 54.3319 107.684 55.0752 107.684 55.9147C107.684 56.7541 107.512 57.5076 107.168 58.1751C106.824 58.8325 106.349 59.3483 105.742 59.7225C105.145 60.0866 104.483 60.2687 103.754 60.2687C103.117 60.2687 102.551 60.1423 102.055 59.8894C101.56 59.6265 101.155 59.3028 100.842 58.9185V64.1069H99.1122V51.7731H100.842V53.0019ZM105.924 55.9147C105.924 55.3382 105.802 54.8426 105.56 54.428C105.327 54.0032 105.014 53.6846 104.619 53.4722C104.235 53.2497 103.82 53.1384 103.375 53.1384C102.94 53.1384 102.526 53.2497 102.131 53.4722C101.747 53.6947 101.433 54.0183 101.191 54.4431C100.958 54.8679 100.842 55.3685 100.842 55.945C100.842 56.5215 100.958 57.0272 101.191 57.4621C101.433 57.8869 101.747 58.2105 102.131 58.433C102.526 58.6555 102.94 58.7668 103.375 58.7668C103.82 58.7668 104.235 58.6555 104.619 58.433C105.014 58.2004 105.327 57.8666 105.56 57.4318C105.802 56.9969 105.924 56.4912 105.924 55.9147ZM117.055 55.7478C117.055 56.0613 117.035 56.3445 116.994 56.5974H110.608C110.658 57.2649 110.906 57.8009 111.351 58.2055C111.796 58.61 112.342 58.8123 112.989 58.8123C113.92 58.8123 114.577 58.4229 114.962 57.6441H116.828C116.575 58.4128 116.115 59.0449 115.447 59.5405C114.79 60.0259 113.97 60.2687 112.989 60.2687C112.19 60.2687 111.472 60.0917 110.835 59.7377C110.208 59.3736 109.713 58.8679 109.348 58.2206C108.994 57.5632 108.817 56.8047 108.817 55.945C108.817 55.0854 108.989 54.3319 109.333 53.6846C109.687 53.0272 110.178 52.5215 110.805 52.1675C111.442 51.8135 112.17 51.6365 112.989 51.6365C113.778 51.6365 114.481 51.8085 115.098 52.1523C115.715 52.4962 116.195 52.9817 116.539 53.6087C116.883 54.2257 117.055 54.9387 117.055 55.7478ZM115.25 55.2017C115.24 54.5645 115.012 54.0537 114.567 53.6694C114.122 53.2851 113.571 53.0929 112.914 53.0929C112.317 53.0929 111.806 53.2851 111.381 53.6694C110.957 54.0436 110.704 54.5544 110.623 55.2017H115.25ZM118.181 55.945C118.181 55.0854 118.353 54.3319 118.696 53.6846C119.05 53.0272 119.536 52.5215 120.153 52.1675C120.77 51.8135 121.478 51.6365 122.277 51.6365C123.288 51.6365 124.122 51.8793 124.78 52.3647C125.447 52.8401 125.897 53.5228 126.13 54.4128H124.264C124.112 53.9981 123.87 53.6745 123.536 53.4419C123.202 53.2092 122.782 53.0929 122.277 53.0929C121.569 53.0929 121.002 53.3458 120.578 53.8515C120.163 54.347 119.956 55.0449 119.956 55.945C119.956 56.8452 120.163 57.5481 120.578 58.0538C121.002 58.5594 121.569 58.8123 122.277 58.8123C123.278 58.8123 123.94 58.3723 124.264 57.4924H126.13C125.887 58.342 125.432 59.0196 124.765 59.5253C124.097 60.0209 123.268 60.2687 122.277 60.2687C121.478 60.2687 120.77 60.0917 120.153 59.7377C119.536 59.3736 119.05 58.8679 118.696 58.2206C118.353 57.5632 118.181 56.8047 118.181 55.945ZM128.733 50.6656C128.42 50.6656 128.157 50.5594 127.945 50.347C127.732 50.1346 127.626 49.8717 127.626 49.5582C127.626 49.2446 127.732 48.9817 127.945 48.7693C128.157 48.5569 128.42 48.4507 128.733 48.4507C129.037 48.4507 129.295 48.5569 129.507 48.7693C129.72 48.9817 129.826 49.2446 129.826 49.5582C129.826 49.8717 129.72 50.1346 129.507 50.347C129.295 50.5594 129.037 50.6656 128.733 50.6656ZM129.583 51.7731V60.1321H127.854V51.7731H129.583ZM131.277 55.9147C131.277 55.0752 131.449 54.3319 131.793 53.6846C132.147 53.0373 132.622 52.5367 133.219 52.1827C133.826 51.8186 134.493 51.6365 135.222 51.6365C135.879 51.6365 136.45 51.768 136.936 52.031C137.431 52.2838 137.826 52.6024 138.119 52.9867V51.7731H139.864V60.1321H138.119V58.8881C137.826 59.2826 137.426 59.6113 136.921 59.8742C136.415 60.1372 135.839 60.2687 135.191 60.2687C134.473 60.2687 133.816 60.0866 133.219 59.7225C132.622 59.3483 132.147 58.8325 131.793 58.1751C131.449 57.5076 131.277 56.7541 131.277 55.9147ZM138.119 55.945C138.119 55.3685 137.998 54.8679 137.755 54.4431C137.522 54.0183 137.214 53.6947 136.83 53.4722C136.445 53.2497 136.031 53.1384 135.586 53.1384C135.141 53.1384 134.726 53.2497 134.342 53.4722C133.957 53.6846 133.644 54.0032 133.401 54.428C133.168 54.8426 133.052 55.3382 133.052 55.9147C133.052 56.4912 133.168 56.9969 133.401 57.4318C133.644 57.8666 133.957 58.2004 134.342 58.433C134.736 58.6555 135.151 58.7668 135.586 58.7668C136.031 58.7668 136.445 58.6555 136.83 58.433C137.214 58.2105 137.522 57.8869 137.755 57.4621C137.998 57.0272 138.119 56.5215 138.119 55.945ZM143.865 48.9058V60.1321H142.135V48.9058H143.865ZM147.015 50.6656C146.702 50.6656 146.439 50.5594 146.227 50.347C146.014 50.1346 145.908 49.8717 145.908 49.5582C145.908 49.2446 146.014 48.9817 146.227 48.7693C146.439 48.5569 146.702 48.4507 147.015 48.4507C147.319 48.4507 147.577 48.5569 147.789 48.7693C148.001 48.9817 148.108 49.2446 148.108 49.5582C148.108 49.8717 148.001 50.1346 147.789 50.347C147.577 50.5594 147.319 50.6656 147.015 50.6656ZM147.865 51.7731V60.1321H146.135V51.7731H147.865ZM153.17 60.2687C152.512 60.2687 151.921 60.1524 151.395 59.9198C150.879 59.677 150.469 59.3534 150.166 58.9488C149.863 58.5342 149.701 58.074 149.68 57.5683H151.471C151.501 57.9223 151.668 58.2206 151.971 58.4634C152.285 58.696 152.674 58.8123 153.139 58.8123C153.625 58.8123 153.999 58.7213 154.262 58.5392C154.535 58.3471 154.672 58.1043 154.672 57.811C154.672 57.4975 154.52 57.2649 154.216 57.1132C153.923 56.9615 153.453 56.7946 152.806 56.6125C152.179 56.4406 151.668 56.2737 151.273 56.1119C150.879 55.9501 150.535 55.7023 150.242 55.3685C149.959 55.0348 149.817 54.5948 149.817 54.0487C149.817 53.6037 149.948 53.1991 150.211 52.835C150.474 52.4608 150.849 52.1675 151.334 51.9551C151.83 51.7427 152.396 51.6365 153.033 51.6365C153.984 51.6365 154.747 51.8793 155.324 52.3647C155.911 52.8401 156.224 53.4924 156.265 54.3218H154.535C154.505 53.9475 154.353 53.6492 154.08 53.4267C153.807 53.2042 153.438 53.0929 152.972 53.0929C152.517 53.0929 152.168 53.1789 151.926 53.3508C151.683 53.5228 151.562 53.7503 151.562 54.0335C151.562 54.256 151.643 54.4431 151.804 54.5948C151.966 54.7465 152.163 54.8679 152.396 54.9589C152.629 55.0398 152.972 55.146 153.428 55.2775C154.034 55.4393 154.53 55.6062 154.914 55.7781C155.309 55.94 155.648 56.1827 155.931 56.5063C156.214 56.83 156.361 57.2598 156.371 57.7959C156.371 58.2712 156.239 58.696 155.976 59.0702C155.713 59.4444 155.339 59.7377 154.854 59.9501C154.378 60.1625 153.817 60.2687 153.17 60.2687ZM160.257 53.184V57.811C160.257 58.1246 160.328 58.3521 160.47 58.4937C160.621 58.6252 160.874 58.6909 161.228 58.6909H162.29V60.1321H160.925C160.146 60.1321 159.549 59.9501 159.135 59.586C158.72 59.2219 158.513 58.6302 158.513 57.811V53.184H157.526V51.7731H158.513V49.6947H160.257V51.7731H162.29V53.184H160.257ZM163.308 55.9147C163.308 55.0752 163.479 54.3319 163.823 53.6846C164.177 53.0373 164.653 52.5367 165.249 52.1827C165.856 51.8186 166.524 51.6365 167.252 51.6365C167.909 51.6365 168.481 51.768 168.966 52.031C169.462 52.2838 169.856 52.6024 170.15 52.9867V51.7731H171.894V60.1321H170.15V58.8881C169.856 59.2826 169.457 59.6113 168.951 59.8742C168.445 60.1372 167.869 60.2687 167.222 60.2687C166.504 60.2687 165.846 60.0866 165.249 59.7225C164.653 59.3483 164.177 58.8325 163.823 58.1751C163.479 57.5076 163.308 56.7541 163.308 55.9147ZM170.15 55.945C170.15 55.3685 170.028 54.8679 169.785 54.4431C169.553 54.0183 169.244 53.6947 168.86 53.4722C168.476 53.2497 168.061 53.1384 167.616 53.1384C167.171 53.1384 166.756 53.2497 166.372 53.4722C165.988 53.6846 165.674 54.0032 165.431 54.428C165.199 54.8426 165.083 55.3382 165.083 55.9147C165.083 56.4912 165.199 56.9969 165.431 57.4318C165.674 57.8666 165.988 58.2004 166.372 58.433C166.766 58.6555 167.181 58.7668 167.616 58.7668C168.061 58.7668 168.476 58.6555 168.86 58.433C169.244 58.2105 169.553 57.8869 169.785 57.4621C170.028 57.0272 170.15 56.5215 170.15 55.945ZM185.768 55.7478C185.768 56.0613 185.748 56.3445 185.707 56.5974H179.32C179.371 57.2649 179.619 57.8009 180.064 58.2055C180.509 58.61 181.055 58.8123 181.702 58.8123C182.632 58.8123 183.29 58.4229 183.674 57.6441H185.54C185.287 58.4128 184.827 59.0449 184.16 59.5405C183.502 60.0259 182.683 60.2687 181.702 60.2687C180.903 60.2687 180.185 60.0917 179.548 59.7377C178.921 59.3736 178.425 58.8679 178.061 58.2206C177.707 57.5632 177.53 56.8047 177.53 55.945C177.53 55.0854 177.702 54.3319 178.046 53.6846C178.4 53.0272 178.89 52.5215 179.517 52.1675C180.155 51.8135 180.883 51.6365 181.702 51.6365C182.491 51.6365 183.194 51.8085 183.811 52.1523C184.428 52.4962 184.908 52.9817 185.252 53.6087C185.596 54.2257 185.768 54.9387 185.768 55.7478ZM183.962 55.2017C183.952 54.5645 183.725 54.0537 183.28 53.6694C182.835 53.2851 182.284 53.0929 181.626 53.0929C181.029 53.0929 180.519 53.2851 180.094 53.6694C179.669 54.0436 179.416 54.5544 179.335 55.2017H183.962ZM197.589 51.6365C198.246 51.6365 198.833 51.7731 199.348 52.0462C199.874 52.3192 200.284 52.7238 200.577 53.2598C200.881 53.7958 201.032 54.4431 201.032 55.2017V60.1321H199.318V55.4596C199.318 54.7111 199.131 54.1397 198.757 53.7453C198.383 53.3407 197.872 53.1384 197.225 53.1384C196.577 53.1384 196.061 53.3407 195.677 53.7453C195.303 54.1397 195.116 54.7111 195.116 55.4596V60.1321H193.401V55.4596C193.401 54.7111 193.214 54.1397 192.84 53.7453C192.466 53.3407 191.955 53.1384 191.308 53.1384C190.661 53.1384 190.145 53.3407 189.761 53.7453C189.386 54.1397 189.199 54.7111 189.199 55.4596V60.1321H187.47V51.7731H189.199V52.7288C189.482 52.385 189.841 52.1169 190.276 51.9248C190.711 51.7326 191.176 51.6365 191.672 51.6365C192.34 51.6365 192.936 51.7781 193.462 52.0613C193.988 52.3445 194.393 52.7541 194.676 53.2902C194.929 52.7845 195.323 52.385 195.859 52.0917C196.395 51.7883 196.972 51.6365 197.589 51.6365ZM218.279 49.5885V60.1321H216.549V52.9109L213.333 60.1321H212.135L208.903 52.9109V60.1321H207.174V49.5885H209.04L212.742 57.8565L216.428 49.5885H218.279ZM219.975 55.9147C219.975 55.0752 220.147 54.3319 220.491 53.6846C220.845 53.0373 221.321 52.5367 221.917 52.1827C222.524 51.8186 223.192 51.6365 223.92 51.6365C224.577 51.6365 225.149 51.768 225.634 52.031C226.13 52.2838 226.524 52.6024 226.817 52.9867V51.7731H228.562V60.1321H226.817V58.8881C226.524 59.2826 226.125 59.6113 225.619 59.8742C225.113 60.1372 224.537 60.2687 223.89 60.2687C223.171 60.2687 222.514 60.0866 221.917 59.7225C221.321 59.3483 220.845 58.8325 220.491 58.1751C220.147 57.5076 219.975 56.7541 219.975 55.9147ZM226.817 55.945C226.817 55.3685 226.696 54.8679 226.453 54.4431C226.221 54.0183 225.912 53.6947 225.528 53.4722C225.144 53.2497 224.729 53.1384 224.284 53.1384C223.839 53.1384 223.424 53.2497 223.04 53.4722C222.656 53.6846 222.342 54.0032 222.099 54.428C221.867 54.8426 221.75 55.3382 221.75 55.9147C221.75 56.4912 221.867 56.9969 222.099 57.4318C222.342 57.8666 222.656 58.2004 223.04 58.433C223.434 58.6555 223.849 58.7668 224.284 58.7668C224.729 58.7668 225.144 58.6555 225.528 58.433C225.912 58.2105 226.221 57.8869 226.453 57.4621C226.696 57.0272 226.817 56.5215 226.817 55.945ZM226.12 49.5278L222.767 51.1814V49.9071L226.12 48.0563V49.5278ZM230.257 55.9147C230.257 55.0752 230.429 54.3319 230.773 53.6846C231.127 53.0373 231.602 52.5367 232.199 52.1827C232.806 51.8186 233.478 51.6365 234.217 51.6365C234.864 51.6365 235.435 51.768 235.931 52.031C236.437 52.2939 236.826 52.6125 237.099 52.9867V51.7731H238.844V64.1069H237.099V58.9185C236.826 59.2927 236.432 59.6113 235.916 59.8742C235.4 60.1372 234.813 60.2687 234.156 60.2687C233.438 60.2687 232.781 60.0866 232.184 59.7225C231.597 59.3483 231.127 58.8325 230.773 58.1751C230.429 57.5076 230.257 56.7541 230.257 55.9147ZM237.099 55.945C237.099 55.3685 236.978 54.8679 236.735 54.4431C236.502 54.0183 236.194 53.6947 235.81 53.4722C235.425 53.2497 235.011 53.1384 234.566 53.1384C234.121 53.1384 233.706 53.2497 233.322 53.4722C232.937 53.6846 232.624 54.0032 232.381 54.428C232.148 54.8426 232.032 55.3382 232.032 55.9147C232.032 56.4912 232.148 56.9969 232.381 57.4318C232.624 57.8666 232.937 58.2004 233.322 58.433C233.716 58.6555 234.131 58.7668 234.566 58.7668C235.011 58.7668 235.425 58.6555 235.81 58.433C236.194 58.2105 236.502 57.8869 236.735 57.4621C236.978 57.0272 237.099 56.5215 237.099 55.945ZM248.686 51.7731V60.1321H246.956V59.146C246.683 59.4899 246.324 59.763 245.879 59.9653C245.444 60.1574 244.979 60.2535 244.483 60.2535C243.826 60.2535 243.234 60.117 242.708 59.8439C242.193 59.5708 241.783 59.1663 241.479 58.6302C241.186 58.0942 241.04 57.4469 241.04 56.6884V51.7731H242.754V56.4305C242.754 57.1789 242.941 57.7554 243.315 58.1599C243.689 58.5544 244.2 58.7516 244.847 58.7516C245.495 58.7516 246.005 58.5544 246.38 58.1599C246.764 57.7554 246.956 57.1789 246.956 56.4305V51.7731H248.686ZM251.847 50.6656C251.534 50.6656 251.271 50.5594 251.058 50.347C250.846 50.1346 250.74 49.8717 250.74 49.5582C250.74 49.2446 250.846 48.9817 251.058 48.7693C251.271 48.5569 251.534 48.4507 251.847 48.4507C252.151 48.4507 252.409 48.5569 252.621 48.7693C252.833 48.9817 252.94 49.2446 252.94 49.5582C252.94 49.8717 252.833 50.1346 252.621 50.347C252.409 50.5594 252.151 50.6656 251.847 50.6656ZM252.697 51.7731V60.1321H250.967V51.7731H252.697ZM259.185 51.6365C259.842 51.6365 260.429 51.7731 260.945 52.0462C261.471 52.3192 261.88 52.7238 262.174 53.2598C262.467 53.7958 262.614 54.4431 262.614 55.2017V60.1321H260.899V55.4596C260.899 54.7111 260.712 54.1397 260.338 53.7453C259.964 53.3407 259.453 53.1384 258.806 53.1384C258.158 53.1384 257.643 53.3407 257.258 53.7453C256.884 54.1397 256.697 54.7111 256.697 55.4596V60.1321H254.968V51.7731H256.697V52.7288C256.98 52.385 257.339 52.1169 257.774 51.9248C258.219 51.7326 258.689 51.6365 259.185 51.6365ZM264.243 55.9147C264.243 55.0752 264.415 54.3319 264.759 53.6846C265.113 53.0373 265.588 52.5367 266.185 52.1827C266.792 51.8186 267.459 51.6365 268.188 51.6365C268.845 51.6365 269.416 51.768 269.902 52.031C270.397 52.2838 270.792 52.6024 271.085 52.9867V51.7731H272.83V60.1321H271.085V58.8881C270.792 59.2826 270.392 59.6113 269.887 59.8742C269.381 60.1372 268.804 60.2687 268.157 60.2687C267.439 60.2687 266.782 60.0866 266.185 59.7225C265.588 59.3483 265.113 58.8325 264.759 58.1751C264.415 57.5076 264.243 56.7541 264.243 55.9147ZM271.085 55.945C271.085 55.3685 270.964 54.8679 270.721 54.4431C270.488 54.0183 270.18 53.6947 269.796 53.4722C269.411 53.2497 268.997 53.1384 268.552 53.1384C268.107 53.1384 267.692 53.2497 267.308 53.4722C266.923 53.6846 266.61 54.0032 266.367 54.428C266.134 54.8426 266.018 55.3382 266.018 55.9147C266.018 56.4912 266.134 56.9969 266.367 57.4318C266.61 57.8666 266.923 58.2004 267.308 58.433C267.702 58.6555 268.117 58.7668 268.552 58.7668C268.997 58.7668 269.411 58.6555 269.796 58.433C270.18 58.2105 270.488 57.8869 270.721 57.4621C270.964 57.0272 271.085 56.5215 271.085 55.945ZM278.135 60.2687C277.478 60.2687 276.886 60.1524 276.36 59.9198C275.845 59.677 275.435 59.3534 275.132 58.9488C274.828 58.5342 274.666 58.074 274.646 57.5683H276.436C276.467 57.9223 276.634 58.2206 276.937 58.4634C277.251 58.696 277.64 58.8123 278.105 58.8123C278.591 58.8123 278.965 58.7213 279.228 58.5392C279.501 58.3471 279.637 58.1043 279.637 57.811C279.637 57.4975 279.486 57.2649 279.182 57.1132C278.889 56.9615 278.419 56.7946 277.771 56.6125C277.144 56.4406 276.634 56.2737 276.239 56.1119C275.845 55.9501 275.501 55.7023 275.208 55.3685C274.924 55.0348 274.783 54.5948 274.783 54.0487C274.783 53.6037 274.914 53.1991 275.177 52.835C275.44 52.4608 275.814 52.1675 276.3 51.9551C276.795 51.7427 277.362 51.6365 277.999 51.6365C278.95 51.6365 279.713 51.8793 280.29 52.3647C280.876 52.8401 281.19 53.4924 281.23 54.3218H279.501C279.47 53.9475 279.319 53.6492 279.046 53.4267C278.773 53.2042 278.403 53.0929 277.938 53.0929C277.483 53.0929 277.134 53.1789 276.891 53.3508C276.649 53.5228 276.527 53.7503 276.527 54.0335C276.527 54.256 276.608 54.4431 276.77 54.5948C276.932 54.7465 277.129 54.8679 277.362 54.9589C277.594 55.0398 277.938 55.146 278.393 55.2775C279 55.4393 279.496 55.6062 279.88 55.7781C280.275 55.94 280.613 56.1827 280.897 56.5063C281.18 56.83 281.326 57.2598 281.336 57.7959C281.336 58.2712 281.205 58.696 280.942 59.0702C280.679 59.4444 280.305 59.7377 279.819 59.9501C279.344 60.1625 278.783 60.2687 278.135 60.2687ZM298.251 49.5885V60.1321H296.522V52.9109L293.305 60.1321H292.107L288.876 52.9109V60.1321H287.146V49.5885H289.012L292.714 57.8565L296.4 49.5885H298.251ZM304.15 60.2687C303.361 60.2687 302.648 60.0917 302.011 59.7377C301.374 59.3736 300.873 58.8679 300.509 58.2206C300.145 57.5632 299.963 56.8047 299.963 55.945C299.963 55.0955 300.15 54.342 300.524 53.6846C300.898 53.0272 301.409 52.5215 302.056 52.1675C302.704 51.8135 303.427 51.6365 304.226 51.6365C305.025 51.6365 305.748 51.8135 306.395 52.1675C307.042 52.5215 307.553 53.0272 307.927 53.6846C308.302 54.342 308.489 55.0955 308.489 55.945C308.489 56.7946 308.297 57.5481 307.912 58.2055C307.528 58.8629 307.002 59.3736 306.334 59.7377C305.677 60.0917 304.949 60.2687 304.15 60.2687ZM304.15 58.7668C304.595 58.7668 305.01 58.6606 305.394 58.4482C305.788 58.2358 306.107 57.9172 306.35 57.4924C306.592 57.0677 306.714 56.5519 306.714 55.945C306.714 55.3382 306.597 54.8274 306.365 54.4128C306.132 53.988 305.824 53.6694 305.439 53.457C305.055 53.2446 304.64 53.1384 304.195 53.1384C303.75 53.1384 303.336 53.2446 302.951 53.457C302.577 53.6694 302.279 53.988 302.056 54.4128C301.834 54.8274 301.723 55.3382 301.723 55.945C301.723 56.8452 301.95 57.543 302.405 58.0386C302.871 58.524 303.452 58.7668 304.15 58.7668ZM313.43 58.5847L315.796 51.7731H317.632L314.446 60.1321H312.383L309.212 51.7731H311.063L313.43 58.5847ZM326.601 55.7478C326.601 56.0613 326.58 56.3445 326.54 56.5974H320.153C320.204 57.2649 320.451 57.8009 320.896 58.2055C321.341 58.61 321.888 58.8123 322.535 58.8123C323.465 58.8123 324.123 58.4229 324.507 57.6441H326.373C326.12 58.4128 325.66 59.0449 324.992 59.5405C324.335 60.0259 323.516 60.2687 322.535 60.2687C321.736 60.2687 321.018 60.0917 320.381 59.7377C319.754 59.3736 319.258 58.8679 318.894 58.2206C318.54 57.5632 318.363 56.8047 318.363 55.945C318.363 55.0854 318.535 54.3319 318.879 53.6846C319.233 53.0272 319.723 52.5215 320.35 52.1675C320.987 51.8135 321.716 51.6365 322.535 51.6365C323.324 51.6365 324.027 51.8085 324.644 52.1523C325.26 52.4962 325.741 52.9817 326.085 53.6087C326.429 54.2257 326.601 54.9387 326.601 55.7478ZM324.795 55.2017C324.785 54.5645 324.558 54.0537 324.113 53.6694C323.668 53.2851 323.116 53.0929 322.459 53.0929C321.862 53.0929 321.351 53.2851 320.927 53.6694C320.502 54.0436 320.249 54.5544 320.168 55.2017H324.795ZM330.032 48.9058V60.1321H328.303V48.9058H330.032ZM339.964 55.7478C339.964 56.0613 339.944 56.3445 339.903 56.5974H333.516C333.567 57.2649 333.815 57.8009 334.26 58.2055C334.705 58.61 335.251 58.8123 335.898 58.8123C336.829 58.8123 337.486 58.4229 337.87 57.6441H339.736C339.483 58.4128 339.023 59.0449 338.356 59.5405C337.698 60.0259 336.879 60.2687 335.898 60.2687C335.099 60.2687 334.381 60.0917 333.744 59.7377C333.117 59.3736 332.621 58.8679 332.257 58.2206C331.903 57.5632 331.726 56.8047 331.726 55.945C331.726 55.0854 331.898 54.3319 332.242 53.6846C332.596 53.0272 333.086 52.5215 333.713 52.1675C334.351 51.8135 335.079 51.6365 335.898 51.6365C336.687 51.6365 337.39 51.8085 338.007 52.1523C338.624 52.4962 339.104 52.9817 339.448 53.6087C339.792 54.2257 339.964 54.9387 339.964 55.7478ZM338.158 55.2017C338.148 54.5645 337.921 54.0537 337.476 53.6694C337.031 53.2851 336.48 53.0929 335.822 53.0929C335.225 53.0929 334.715 53.2851 334.29 53.6694C333.865 54.0436 333.612 54.5544 333.531 55.2017H338.158ZM342.546 50.6656C342.232 50.6656 341.969 50.5594 341.757 50.347C341.544 50.1346 341.438 49.8717 341.438 49.5582C341.438 49.2446 341.544 48.9817 341.757 48.7693C341.969 48.5569 342.232 48.4507 342.546 48.4507C342.849 48.4507 343.107 48.5569 343.319 48.7693C343.532 48.9817 343.638 49.2446 343.638 49.5582C343.638 49.8717 343.532 50.1346 343.319 50.347C343.107 50.5594 342.849 50.6656 342.546 50.6656ZM343.395 51.7731V60.1321H341.666V51.7731H343.395ZM347.395 52.9867C347.648 52.562 347.982 52.2333 348.397 52.0006C348.821 51.7579 349.322 51.6365 349.898 51.6365V53.4267H349.459C348.781 53.4267 348.265 53.5986 347.911 53.9425C347.567 54.2864 347.395 54.8831 347.395 55.7326V60.1321H345.666V51.7731H347.395V52.9867ZM350.912 55.9147C350.912 55.0752 351.084 54.3319 351.428 53.6846C351.782 53.0373 352.257 52.5367 352.854 52.1827C353.46 51.8186 354.128 51.6365 354.856 51.6365C355.514 51.6365 356.085 51.768 356.57 52.031C357.066 52.2838 357.46 52.6024 357.754 52.9867V51.7731H359.498V60.1321H357.754V58.8881C357.46 59.2826 357.061 59.6113 356.555 59.8742C356.05 60.1372 355.473 60.2687 354.826 60.2687C354.108 60.2687 353.45 60.0866 352.854 59.7225C352.257 59.3483 351.782 58.8325 351.428 58.1751C351.084 57.5076 350.912 56.7541 350.912 55.9147ZM357.754 55.945C357.754 55.3685 357.632 54.8679 357.39 54.4431C357.157 54.0183 356.849 53.6947 356.464 53.4722C356.08 53.2497 355.665 53.1384 355.22 53.1384C354.775 53.1384 354.361 53.2497 353.976 53.4722C353.592 53.6846 353.278 54.0032 353.036 54.428C352.803 54.8426 352.687 55.3382 352.687 55.9147C352.687 56.4912 352.803 56.9969 353.036 57.4318C353.278 57.8666 353.592 58.2004 353.976 58.433C354.371 58.6555 354.785 58.7668 355.22 58.7668C355.665 58.7668 356.08 58.6555 356.464 58.433C356.849 58.2105 357.157 57.8869 357.39 57.4621C357.632 57.0272 357.754 56.5215 357.754 55.945ZM364.804 60.2687C364.147 60.2687 363.555 60.1524 363.029 59.9198C362.513 59.677 362.104 59.3534 361.8 58.9488C361.497 58.5342 361.335 58.074 361.315 57.5683H363.105C363.135 57.9223 363.302 58.2206 363.606 58.4634C363.919 58.696 364.308 58.8123 364.774 58.8123C365.259 58.8123 365.633 58.7213 365.896 58.5392C366.169 58.3471 366.306 58.1043 366.306 57.811C366.306 57.4975 366.154 57.2649 365.851 57.1132C365.558 56.9615 365.087 56.7946 364.44 56.6125C363.813 56.4406 363.302 56.2737 362.908 56.1119C362.513 55.9501 362.169 55.7023 361.876 55.3685C361.593 55.0348 361.451 54.5948 361.451 54.0487C361.451 53.6037 361.583 53.1991 361.846 52.835C362.109 52.4608 362.483 52.1675 362.968 51.9551C363.464 51.7427 364.03 51.6365 364.668 51.6365C365.618 51.6365 366.382 51.8793 366.958 52.3647C367.545 52.8401 367.858 53.4924 367.899 54.3218H366.169C366.139 53.9475 365.987 53.6492 365.714 53.4267C365.441 53.2042 365.072 53.0929 364.607 53.0929C364.152 53.0929 363.803 53.1789 363.56 53.3508C363.317 53.5228 363.196 53.7503 363.196 54.0335C363.196 54.256 363.277 54.4431 363.439 54.5948C363.601 54.7465 363.798 54.8679 364.03 54.9589C364.263 55.0398 364.607 55.146 365.062 55.2775C365.669 55.4393 366.164 55.6062 366.549 55.7781C366.943 55.94 367.282 56.1827 367.565 56.5063C367.848 56.83 367.995 57.2598 368.005 57.7959C368.005 58.2712 367.874 58.696 367.611 59.0702C367.348 59.4444 366.973 59.7377 366.488 59.9501C366.013 60.1625 365.451 60.2687 364.804 60.2687Z" fill="white"/>
<path d="M74.5244 70H58.3432C54.8462 70 51.5467 68.2811 49.5315 65.4163L5.9667 3.20068C5.88767 3.06896 5.80205 2.94383 5.70985 2.82529C5.49911 2.53552 5.26202 2.27209 4.99859 2.035C3.71437 0.770534 1.95597 0 0 0H16.5368C20.0536 0 23.3333 1.71888 25.3486 4.58369L68.9529 66.8586C70.1778 68.6565 72.2128 69.8815 74.5244 70Z" fill="#E4E4E4"/>
<path style="mix-blend-mode:multiply" d="M74.5244 70H58.3432C54.8462 70 51.5467 68.2811 49.5315 65.4163L5.9667 3.20068C5.88767 3.06896 5.80205 2.94383 5.70985 2.82529C5.49911 2.53552 5.26202 2.27209 4.99859 2.035C3.71437 0.770534 1.95597 0 0 0H16.5368C20.0536 0 23.3333 1.71888 25.3486 4.58369L68.9529 66.8586C70.1778 68.6565 72.2128 69.8815 74.5244 70Z" fill="white"/>
<g style="mix-blend-mode:multiply" opacity="0.5">
<path d="M35.6419 45.5602L46.5084 61.0894C46.4097 54.6288 45.7182 41.5693 41.9445 28.2924L25.3484 4.58365C23.8271 2.3906 21.5353 0.889044 18.9866 0.296326C27.8773 13.8301 31.2953 30.0508 35.6419 45.5602Z" fill="#E4E4E4"/>
</g>
<path style="mix-blend-mode:overlay" d="M74.5242 70C72.2126 69.8815 70.1776 68.6565 68.9526 66.8586L51.8626 42.4584C50.8155 49.4327 50.7562 59.0742 54.9052 69.427C55.9918 69.8024 57.1575 70 58.343 70H74.5242Z" fill="white"/>
<path d="M24.6373 3.69461C22.6023 1.36325 19.6585 0 16.5368 0H0C1.95597 0 3.71437 0.770534 4.99859 2.035C5.26202 2.27209 5.4991 2.53552 5.70985 2.82529C5.80205 2.94383 5.88767 3.06896 5.9667 3.20068L44.4143 58.1061C39.7516 23.5704 24.6373 3.69461 24.6373 3.69461Z" fill="#E4E4E4"/>
<path style="mix-blend-mode:multiply" d="M24.6373 3.69461C22.6023 1.36325 19.6585 0 16.5368 0H0C1.95597 0 3.71437 0.770534 4.99859 2.035C5.26202 2.27209 5.4991 2.53552 5.70985 2.82529C5.80205 2.94383 5.88767 3.06896 5.9667 3.20068L44.4143 58.1061C39.7516 23.5704 24.6373 3.69461 24.6373 3.69461Z" fill="white"/>
<path style="mix-blend-mode:overlay" d="M10.1157 0H0C1.95597 0 3.71437 0.770534 4.99859 2.035C5.26202 2.27209 5.4991 2.53552 5.70985 2.82529C5.80205 2.94383 5.88767 3.06896 5.9667 3.20068L32.3624 40.8975C31.2758 29.8137 26.9489 8.12024 10.1157 0Z" fill="white"/>
<path d="M22.1285 30.4855V59.2323C22.1285 65.1793 17.3077 70 11.3608 70H7.05371V8.95007L22.1285 30.4855Z" fill="#E4E4E4"/>
<path style="mix-blend-mode:multiply" d="M22.1285 30.4855V59.2323C22.1285 65.1793 17.3077 70 11.3608 70H7.05371V8.95007L22.1285 30.4855Z" fill="white"/>
<path style="mix-blend-mode:overlay" d="M11.7756 69.9803C17.525 69.763 22.1284 65.041 22.1284 59.2324V44.1378C19.2834 47.3385 13.1389 55.7749 11.7756 69.9803Z" fill="white"/>
<path d="M7.05371 49.5117C17.6436 42.5374 22.1285 30.4855 22.1285 30.4855L7.05371 8.95007V49.5117Z" fill="#E4E4E4"/>
<path style="mix-blend-mode:multiply" d="M7.05371 49.5117C17.6436 42.5374 22.1285 30.4855 22.1285 30.4855L7.05371 8.95007V49.5117Z" fill="white"/>
<g style="mix-blend-mode:multiply" opacity="0.5">
<path d="M7.05396 43.7229V49.5118C17.6439 42.5374 22.1287 30.4855 22.1287 30.4855L20.9433 28.7864C16.3004 37.0252 10.6893 41.5101 7.05396 43.7229Z" fill="#E4E4E4"/>
</g>
<path style="mix-blend-mode:overlay" d="M7.05371 31.4734C9.83949 29.221 13.2772 25.8821 15.9247 21.6145L7.05371 8.95007V31.4734Z" fill="white"/>
<path d="M52.7322 39.5145V10.7677C52.7322 4.82078 57.553 0 63.4999 0H67.8267V61.05L52.7322 39.5145Z" fill="#E4E4E4"/>
<path style="mix-blend-mode:multiply" d="M52.7322 39.5145V10.7677C52.7322 4.82078 57.553 0 63.4999 0H67.8267V61.05L52.7322 39.5145Z" fill="white"/>
<path style="mix-blend-mode:overlay" d="M63.1047 0.0197144C57.3554 0.237044 52.7322 4.95903 52.7322 10.7677V25.8622C55.5772 22.6615 61.7415 14.2252 63.1047 0.0197144Z" fill="white"/>
<g style="mix-blend-mode:multiply" opacity="0.5">
<path d="M52.7322 32.5995V39.5145C52.7322 39.5145 57.2368 27.4626 67.8267 20.4883V18.1964C59.3904 22.2071 54.8264 28.7073 52.7322 32.5995Z" fill="#E4E4E4"/>
</g>
<path d="M67.8267 20.4883C57.2368 27.4626 52.7322 39.5145 52.7322 39.5145L67.8267 61.05V20.4883Z" fill="#E4E4E4"/>
<path style="mix-blend-mode:multiply" d="M67.8267 20.4883C57.2368 27.4626 52.7322 39.5145 52.7322 39.5145L67.8267 61.05V20.4883Z" fill="white"/>
<path style="mix-blend-mode:overlay" d="M57.0789 45.6986L67.8268 61.05V31.1375C62.5319 36.1163 59.1336 41.51 57.0789 45.6986Z" fill="white"/>
</svg>
